<svg style='display: none' xmlns='http://www.w3.org/2000/svg'>

  <symbol viewBox='0 0 24 24' id='icon-facebook'>
    <path d="M15.12 5.32003H17V2.14003C16.0897 2.04538 15.1751 1.99865 14.26 2.00003C11.54 2.00003 9.67999 3.66003 9.67999 6.70003V9.32003H6.60999V12.88H9.67999V22H13.36V12.88H16.42L16.88 9.32003H13.36V7.05003C13.36 6.00003 13.64 5.32003 15.12 5.32003Z"/>
  </symbol>

  <symbol viewBox="0 0 24 24" id='icon-twitter'>
    <path d="M22.9912 3.95021C22.9913 3.77357 22.9447 3.60007 22.8559 3.44735C22.7671 3.29464 22.6395 3.16817 22.486 3.08084C22.3324 2.9935 22.1585 2.94842 21.9819 2.95017C21.8053 2.95193 21.6323 3.00046 21.4805 3.09083C20.8952 3.43921 20.265 3.70601 19.6075 3.88383C18.6685 3.07806 17.4708 2.63713 16.2335 2.64164C14.8761 2.6432 13.5724 3.17223 12.5977 4.11702C11.623 5.06181 11.0537 6.3484 11.0099 7.70512C8.33384 7.27838 5.90849 5.88164 4.19631 3.78126C4.09315 3.65609 3.9614 3.55757 3.81217 3.494C3.66295 3.43043 3.50062 3.40368 3.33889 3.41601C3.17725 3.42932 3.02128 3.4818 2.88448 3.56892C2.74768 3.65603 2.63416 3.77516 2.55373 3.91601C2.14126 4.63582 1.90436 5.44276 1.86228 6.27131C1.8202 7.09986 1.97412 7.92666 2.31154 8.68456L2.30959 8.68651C2.15794 8.77991 2.03278 8.91066 1.94609 9.06625C1.85941 9.22185 1.81409 9.39708 1.81447 9.57519C1.81263 9.72211 1.82145 9.86898 1.84084 10.0146C1.94298 11.2729 2.50062 12.4507 3.4092 13.3271C3.34756 13.4446 3.30994 13.5731 3.29854 13.7052C3.28714 13.8373 3.30218 13.9704 3.34279 14.0967C3.7389 15.3308 4.58129 16.3727 5.7051 17.0185C4.56334 17.46 3.33052 17.614 2.11525 17.4668C1.89032 17.4386 1.66248 17.4876 1.4691 17.6059C1.27572 17.7242 1.12828 17.9047 1.05097 18.1178C0.973654 18.3309 0.97106 18.5639 1.04361 18.7787C1.11616 18.9935 1.25955 19.1772 1.45025 19.2998C3.54034 20.646 5.97393 21.3617 8.46002 21.3613C11.2793 21.393 14.03 20.4921 16.2843 18.7988C18.5385 17.1054 20.17 14.7145 20.9248 11.998C21.2779 10.8146 21.4582 9.58648 21.46 8.35157C21.46 8.28614 21.46 8.21876 21.459 8.15138C21.9811 7.58831 22.3856 6.92668 22.6487 6.20527C22.9118 5.48387 23.0283 4.7172 22.9912 3.95021ZM19.6846 7.16212C19.5194 7.35746 19.4358 7.60891 19.4512 7.86427C19.461 8.02927 19.46 8.19527 19.46 8.35157C19.4579 9.39511 19.305 10.4329 19.0059 11.4326C18.3894 13.744 17.015 15.7817 15.103 17.2192C13.1909 18.6568 10.8517 19.4111 8.46002 19.3613C7.6009 19.3616 6.74474 19.2606 5.90924 19.0606C6.97465 18.7172 7.97083 18.1879 8.85162 17.4971C9.01385 17.3693 9.13257 17.1945 9.19151 16.9967C9.25044 16.7988 9.2467 16.5875 9.18079 16.3918C9.11489 16.1961 8.99005 16.0257 8.8234 15.9038C8.65675 15.7819 8.45647 15.7145 8.25002 15.7109C7.41885 15.698 6.62515 15.363 6.03615 14.7764C6.18557 14.7481 6.33401 14.7129 6.48147 14.6709C6.69748 14.6094 6.88651 14.477 7.01813 14.295C7.14975 14.1131 7.21629 13.8921 7.20704 13.6677C7.1978 13.4433 7.1133 13.2285 6.96715 13.058C6.82101 12.8874 6.62173 12.7711 6.40139 12.7275C5.91893 12.6323 5.46494 12.427 5.0747 12.1277C4.68447 11.8284 4.36852 11.4432 4.15139 11.002C4.33212 11.0266 4.514 11.0419 4.69631 11.0479C4.91289 11.0511 5.1249 10.9854 5.30169 10.8603C5.47847 10.7351 5.61086 10.5569 5.67971 10.3516C5.74569 10.1443 5.74229 9.92123 5.67004 9.7161C5.59778 9.51096 5.46061 9.33499 5.27932 9.21485C4.83947 8.92182 4.47916 8.52427 4.23068 8.0578C3.98219 7.59134 3.85328 7.07052 3.85549 6.54201C3.85549 6.47561 3.85744 6.4092 3.86135 6.34377C6.10261 8.43402 9.00967 9.66621 12.0703 9.82326C12.2248 9.82934 12.3787 9.80024 12.5203 9.73816C12.6619 9.67607 12.7875 9.58262 12.8877 9.46486C12.9869 9.34596 13.0571 9.20566 13.0929 9.05501C13.1286 8.90437 13.1289 8.74748 13.0937 8.5967C13.0366 8.35806 13.0074 8.11357 13.0068 7.86818C13.0077 7.01271 13.348 6.19254 13.9529 5.58764C14.5578 4.98274 15.378 4.64251 16.2334 4.64161C16.6736 4.64043 17.1092 4.7305 17.5127 4.90615C17.9163 5.0818 18.2791 5.3392 18.5781 5.66212C18.6935 5.7862 18.8386 5.87871 18.9998 5.93085C19.161 5.98299 19.3329 5.99303 19.499 5.96001C19.9098 5.88006 20.3147 5.7724 20.7109 5.63775C20.4407 6.19072 20.0953 6.70369 19.6846 7.16212Z"/>
  </symbol>

  <symbol viewBox="0 0 24 24" id='icon-instagram'>
    <path d="M17.34 5.46C17.1027 5.46 16.8707 5.53038 16.6733 5.66224C16.476 5.79409 16.3222 5.98151 16.2313 6.20078C16.1405 6.42005 16.1168 6.66133 16.1631 6.89411C16.2094 7.12689 16.3236 7.34071 16.4915 7.50853C16.6593 7.67635 16.8731 7.79064 17.1059 7.83694C17.3387 7.88324 17.5799 7.85948 17.7992 7.76866C18.0185 7.67783 18.2059 7.52402 18.3378 7.32668C18.4696 7.12935 18.54 6.89734 18.54 6.66C18.54 6.34174 18.4136 6.03652 18.1885 5.81147C17.9635 5.58643 17.6583 5.46 17.34 5.46ZM21.94 7.88C21.9206 7.0503 21.7652 6.2294 21.48 5.45C21.2257 4.78313 20.83 4.17928 20.32 3.68C19.8248 3.16743 19.2196 2.77418 18.55 2.53C17.7727 2.23616 16.9508 2.07721 16.12 2.06C15.06 2 14.72 2 12 2C9.28 2 8.94 2 7.88 2.06C7.04915 2.07721 6.22734 2.23616 5.45 2.53C4.78168 2.77665 4.17693 3.16956 3.68 3.68C3.16743 4.17518 2.77418 4.78044 2.53 5.45C2.23616 6.22734 2.07721 7.04915 2.06 7.88C2 8.94 2 9.28 2 12C2 14.72 2 15.06 2.06 16.12C2.07721 16.9508 2.23616 17.7727 2.53 18.55C2.77418 19.2196 3.16743 19.8248 3.68 20.32C4.17693 20.8304 4.78168 21.2234 5.45 21.47C6.22734 21.7638 7.04915 21.9228 7.88 21.94C8.94 22 9.28 22 12 22C14.72 22 15.06 22 16.12 21.94C16.9508 21.9228 17.7727 21.7638 18.55 21.47C19.2196 21.2258 19.8248 20.8326 20.32 20.32C20.8322 19.8226 21.2283 19.2182 21.48 18.55C21.7652 17.7706 21.9206 16.9497 21.94 16.12C21.94 15.06 22 14.72 22 12C22 9.28 22 8.94 21.94 7.88ZM20.14 16C20.1327 16.6348 20.0178 17.2637 19.8 17.86C19.6403 18.2952 19.3839 18.6884 19.05 19.01C18.7256 19.3405 18.3332 19.5964 17.9 19.76C17.3037 19.9778 16.6748 20.0927 16.04 20.1C15.04 20.15 14.67 20.16 12.04 20.16C9.41 20.16 9.04 20.16 8.04 20.1C7.38089 20.1123 6.72459 20.0109 6.1 19.8C5.68578 19.6281 5.31136 19.3728 5 19.05C4.66809 18.7287 4.41484 18.3352 4.26 17.9C4.01586 17.2952 3.88044 16.6519 3.86 16C3.86 15 3.8 14.63 3.8 12C3.8 9.37 3.8 9 3.86 8C3.86448 7.35106 3.98295 6.70795 4.21 6.1C4.38605 5.67791 4.65627 5.30166 5 5C5.30381 4.65617 5.67929 4.3831 6.1 4.2C6.70955 3.98004 7.352 3.86508 8 3.86C9 3.86 9.37 3.8 12 3.8C14.63 3.8 15 3.8 16 3.86C16.6348 3.86728 17.2637 3.98225 17.86 4.2C18.3144 4.36865 18.7223 4.64285 19.05 5C19.3777 5.30718 19.6338 5.68273 19.8 6.1C20.0223 6.70893 20.1373 7.35178 20.14 8C20.19 9 20.2 9.37 20.2 12C20.2 14.63 20.19 15 20.14 16ZM12 6.87C10.9858 6.87198 9.99496 7.17453 9.15265 7.73942C8.31035 8.30431 7.65438 9.1062 7.26763 10.0438C6.88089 10.9813 6.78072 12.0125 6.97979 13.0069C7.17886 14.0014 7.66824 14.9145 8.38608 15.631C9.10392 16.3474 10.018 16.835 11.0129 17.0321C12.0077 17.2293 13.0387 17.1271 13.9755 16.7385C14.9123 16.35 15.7129 15.6924 16.2761 14.849C16.8394 14.0056 17.14 13.0142 17.14 12C17.1413 11.3251 17.0092 10.6566 16.7512 10.033C16.4933 9.40931 16.1146 8.84281 15.6369 8.36605C15.1592 7.88929 14.5919 7.51168 13.9678 7.25493C13.3436 6.99818 12.6749 6.86736 12 6.87ZM12 15.33C11.3414 15.33 10.6976 15.1347 10.15 14.7688C9.60234 14.4029 9.17552 13.8828 8.92348 13.2743C8.67144 12.6659 8.6055 11.9963 8.73398 11.3503C8.86247 10.7044 9.17963 10.111 9.64533 9.64533C10.111 9.17963 10.7044 8.86247 11.3503 8.73398C11.9963 8.6055 12.6659 8.67144 13.2743 8.92348C13.8828 9.17552 14.4029 9.60234 14.7688 10.15C15.1347 10.6976 15.33 11.3414 15.33 12C15.33 12.4373 15.2439 12.8703 15.0765 13.2743C14.9092 13.6784 14.6639 14.0454 14.3547 14.3547C14.0454 14.6639 13.6784 14.9092 13.2743 15.0765C12.8703 15.2439 12.4373 15.33 12 15.33Z"/>
  </symbol>

  <svg  viewBox="0 0 1920 10984" fill="none" id='decorate-bg-one'>
    <path opacity="0.2" d="M1981 1.5C1548.17 17.3333 628.6 219.8 413 903C197.4 1586.2 907.833 2324 1290 2607.5C1701.17 2878.83 2276.8 3984 1290 6234C56.5 9046.5 222.5 9261 1290 10693L2083.5 11722C1816.83 11757.3 1309.1 12027.4 1411.5 12825C1513.9 13622.6 416.833 14547 -144.5 14909.5" stroke="#ABABAB" stroke-width="2"/>
  </svg>

  <svg  viewBox="0 0 560 10694" fill="none" id='decorate-bg-two'>
    <path opacity="0.2" d="M-1049 1C-616.167 16.8333 303.4 219.3 519 902.5C734.6 1585.7 24.1667 2323.5 -358 2607C-769.167 2878.33 -1344.8 3983.5 -358 6233.5C875.5 9046 709.5 9260.5 -358 10692.5" stroke="#ABABAB" stroke-width="2"/>
  </svg>

  <svg viewBox="0 0 40 9" fill="none" id='spoon'>
    <path d="M33.5016 9C37.0849 9 40 6.98129 40 4.49995C40 2.01861 37.0849 0 33.5016 0C30.1122 0 27.3221 1.80637 27.03 4.1018H22.3529V3.1552L0 3.1552V5.84446L22.353 5.84446V4.89798H27.0301C27.3223 7.19352 30.1122 9 33.5016 9ZM21.4898 5.04839L0.863293 5.04839V3.95161L21.4898 3.95161V5.04839ZM27.8662 4.49995C27.8662 2.45778 30.3944 0.796403 33.5017 0.796403C36.6091 0.796403 39.1372 2.45778 39.1372 4.49995C39.1372 6.54222 36.6091 8.2037 33.5017 8.2037C30.3944 8.2037 27.8662 6.54222 27.8662 4.49995Z" fill="#DCCA87"/>
  </svg>

  <svg viewBox="0 0 241 93" fill="none" id='signature'>
    <path d="M69.2188 23.5312C69.0521 23.2396 69.8438 22.2188 71.5938 20.4688C73.3646 18.6979 74.25 17.3958 74.25 16.5625C74.25 15.9583 74.1458 15.5938 73.9375 15.4688C73.7292 15.3229 73.1354 15.25 72.1562 15.25C70.7396 15.25 68.7604 15.6667 66.2188 16.5C64.1146 17.1667 60.6562 18.6562 55.8438 20.9688C51.0312 23.2812 46.9167 25.4271 43.5 27.4062C39.6458 29.6354 34.7188 32.8229 28.7188 36.9688C22.7188 41.1146 19.0104 43.8958 17.5938 45.3125C17.0729 45.8333 16.0312 48.0521 14.4688 51.9688C14.0521 53.0312 13.7604 53.7604 13.5938 54.1562C13.4271 54.5521 13.2396 55.1042 13.0312 55.8125C12.8229 56.5 12.6875 56.9375 12.625 57.125C12.5833 57.2917 12.5833 57.6146 12.625 58.0938C12.6667 58.5521 12.7188 58.8333 12.7812 58.9375C12.8646 59.0417 13.0625 59.3021 13.375 59.7188C13.6875 60.1354 13.9479 60.4375 14.1562 60.625C14.3646 60.7917 14.75 61.1354 15.3125 61.6562C18.7917 64.8646 23.0104 66.6458 27.9688 67C32.9479 67.3542 38.9375 66.3125 45.9375 63.875C49.125 62.75 51.1979 62.1042 52.1562 61.9375C52.7604 61.8125 53.125 61.8021 53.25 61.9062C53.3958 61.9896 53.4271 62.2708 53.3438 62.75C53.2812 63.1875 53 63.5833 52.5 63.9375C52.0208 64.2708 51.0938 64.7083 49.7188 65.25C41.8854 68.3542 34.8333 69.7396 28.5625 69.4062C22.3125 69.0521 17.2292 66.9896 13.3125 63.2188L10.875 60.9062L9.59375 64.125C6.73958 71.2083 4.71875 77.1458 3.53125 81.9375C2.34375 86.7292 2.26042 89.3229 3.28125 89.7188C3.48958 89.7812 3.66667 89.9271 3.8125 90.1562C3.95833 90.3854 4.03125 90.625 4.03125 90.875C4.03125 91.2917 3.79167 91.5729 3.3125 91.7188C2.85417 91.8854 2.34375 91.8854 1.78125 91.7188C1.23958 91.5729 0.864583 91.2917 0.65625 90.875C0.239583 90.0833 0.09375 88.7188 0.21875 86.7812C0.34375 84.8438 0.71875 82.7083 1.34375 80.375C1.94792 78.0833 2.96875 74.8854 4.40625 70.7812C5.86458 66.6562 7.05208 63.5625 7.96875 61.5C8.63542 59.8542 8.95833 58.0417 8.9375 56.0625C8.875 54.3333 9.125 52.7917 9.6875 51.4375C10.2708 50.0833 11.3333 48.4688 12.875 46.5938C13.4375 45.9062 14.0625 44.9479 14.75 43.7188C15.4375 42.4896 16.0104 41.2708 16.4688 40.0625C17.5104 37.4167 19.4792 31.7708 22.375 23.125C25.2917 14.4792 27.1667 8.70833 28 5.8125C28.6875 3.4375 29.2396 1.90625 29.6562 1.21875C30.0729 0.53125 30.5521 0.354167 31.0938 0.6875C31.6146 1.02083 31.5208 2.46875 30.8125 5.03125C30.125 7.57292 28.1354 13.7708 24.8438 23.625C23.2812 28.2917 21.9688 32.2708 20.9062 35.5625C19.8438 38.8333 19.3333 40.4688 19.375 40.4688C19.4583 40.4688 20.6771 39.6042 23.0312 37.875C30.0938 32.6875 37.7812 27.7917 46.0938 23.1875C54.4062 18.5625 61.1354 15.4479 66.2812 13.8438C68.2188 13.2396 69.9688 12.9167 71.5312 12.875C73.0938 12.8125 74.3021 13.0104 75.1562 13.4688C76.0312 13.9271 76.6146 14.5521 76.9062 15.3438C77.1979 16.1354 77.0729 17.1146 76.5312 18.2812C75.9896 19.4271 75.0625 20.6458 73.75 21.9375C72.7708 22.8958 71.8542 23.5312 71 23.8438C70.1458 24.1354 69.5521 24.0312 69.2188 23.5312ZM71.185 56.8438C71.3933 57.3646 71.1954 57.9167 70.5913 58.5C70.0079 59.0833 68.3725 60.3229 65.685 62.2188C62.6433 64.3854 60.3204 65.7604 58.7163 66.3438C57.1121 66.9271 55.6225 66.9375 54.2475 66.375C52.9975 65.875 52.3413 64.6875 52.2788 62.8125C52.2163 60.9167 52.7579 58.7604 53.9038 56.3438C54.6329 54.8021 55.3621 53.5625 56.0913 52.625C56.8413 51.6667 57.7267 51.0208 58.7475 50.6875C59.81 50.3542 60.6642 50.5417 61.31 51.25C61.9767 51.9375 62.2163 52.75 62.0288 53.6875C61.8413 54.6875 61.1433 55.8438 59.935 57.1562C58.7267 58.4479 57.685 59.0938 56.81 59.0938C56.1225 59.0938 55.6746 59.2083 55.4663 59.4375C55.2579 59.6458 55.0496 60.2604 54.8413 61.2812C54.6538 62.2604 54.7683 63.0625 55.185 63.6875C55.5183 64.1042 55.8204 64.3333 56.0913 64.375C56.3621 64.3958 56.935 64.2812 57.81 64.0312C58.9975 63.6979 61.2996 62.2917 64.7163 59.8125C66.0288 58.8542 67.06 58.125 67.81 57.625C68.56 57.1042 69.185 56.7396 69.685 56.5312C70.185 56.3021 70.5288 56.2292 70.7163 56.3125C70.9038 56.375 71.06 56.5521 71.185 56.8438ZM57.7788 54.5C57.0288 55.5833 56.7996 56.1979 57.0913 56.3438C57.2996 56.4062 57.6642 56.1979 58.185 55.7188C58.9767 54.9688 59.3725 54.375 59.3725 53.9375C59.3725 53.375 59.185 53.1875 58.81 53.375C58.4975 53.5208 58.1538 53.8958 57.7788 54.5ZM87.4638 53.4375C88.4221 53.0833 89.1304 53.0208 89.5888 53.25C90.0679 53.4583 90.1721 53.8958 89.9013 54.5625C89.6096 55.3333 88.5992 55.875 86.87 56.1875C85.1617 56.5 84.0054 56.3542 83.4013 55.75C83.1304 55.4792 82.9221 55.375 82.7763 55.4375C82.4429 55.5625 81.5158 56.5938 79.995 58.5312C79.5992 59.0521 78.7971 60.0938 77.5888 61.6562C75.8179 64.0104 74.5679 65.5417 73.8388 66.25C73.1304 66.9375 72.4533 67.3125 71.8075 67.375C71.2033 67.4375 70.7763 67.4062 70.5263 67.2812C70.2763 67.1354 70.0679 66.8438 69.9013 66.4062C69.4221 64.9688 69.6096 62.1875 70.4638 58.0625C71.0471 55.0833 71.7554 53.5625 72.5888 53.5C72.7971 53.5 72.995 53.5938 73.1825 53.7812C73.3908 54.0104 73.4638 54.4583 73.4013 55.125C73.3596 55.7708 73.1929 56.875 72.9013 58.4375C72.7554 59.1667 72.6304 59.7812 72.5263 60.2812C72.4429 60.7812 72.37 61.2604 72.3075 61.7188C72.245 62.1562 72.2033 62.5104 72.1825 62.7812C72.1617 63.0312 72.1721 63.25 72.2138 63.4375C72.2554 63.6042 72.3075 63.6979 72.37 63.7188C72.4533 63.7396 72.5783 63.7083 72.745 63.625C72.9117 63.5208 73.0888 63.375 73.2763 63.1875C73.4638 62.9792 73.7033 62.6979 73.995 62.3438C74.3075 61.9688 74.62 61.5833 74.9325 61.1875C75.2658 60.7708 75.6617 60.25 76.12 59.625C77.1408 58.25 79.1096 55.6146 82.0263 51.7188L84.9325 47.8438C85.2658 47.4062 85.495 47.1771 85.62 47.1562C85.7658 47.1146 86.0158 47.2604 86.37 47.5938C86.7242 47.9479 86.8804 48.2917 86.8388 48.625C86.8179 48.9583 86.5679 49.7083 86.0888 50.875C85.4013 52.5417 85.1617 53.4896 85.37 53.7188C85.62 53.9688 86.3179 53.875 87.4638 53.4375ZM114.618 56.3125C115.18 56.25 115.576 56.4583 115.805 56.9375C116.034 57.4167 115.888 57.9688 115.368 58.5938C114.951 59.0521 114.493 59.5417 113.993 60.0625C113.493 60.5625 112.649 61.3333 111.461 62.375C110.274 63.4167 109.086 64.3542 107.899 65.1875C106.711 66 105.305 66.7917 103.68 67.5625C102.055 68.3333 100.482 68.8646 98.9613 69.1562C96.7529 69.5729 94.7946 69.2396 93.0863 68.1562C91.3779 67.0521 90.4196 65.5104 90.2113 63.5312C90.0029 61.4479 90.1279 59.2708 90.5863 57C90.9821 55.0833 91.4717 53.6979 92.055 52.8438C92.6383 51.9896 93.2529 51.7708 93.8988 52.1875C94.1904 52.3542 94.3363 52.75 94.3363 53.375C94.3363 53.9792 94.2008 54.3646 93.93 54.5312C93.6383 54.7188 93.305 56.0729 92.93 58.5938C92.68 60.1979 92.555 61.3333 92.555 62C92.5758 62.6458 92.7425 63.3438 93.055 64.0938C93.6383 65.5104 94.7738 66.3021 96.4613 66.4688C98.1696 66.6146 99.9508 66.3125 101.805 65.5625C103.68 64.8125 105.399 63.8333 106.961 62.625C107.94 61.8542 109.034 60.9271 110.243 59.8438C111.472 58.7396 112.43 57.8854 113.118 57.2812C113.826 56.6771 114.326 56.3542 114.618 56.3125ZM95.5863 48.375C95.3571 48.6042 95.0654 48.7188 94.7113 48.7188C94.3571 48.7188 94.055 48.6042 93.805 48.375C93.5758 48.125 93.4613 47.8229 93.4613 47.4688C93.4613 47.1146 93.5758 46.8229 93.805 46.5938C94.055 46.3438 94.3571 46.2188 94.7113 46.2188C95.0654 46.2188 95.3571 46.3438 95.5863 46.5938C95.8363 46.8229 95.9613 47.1146 95.9613 47.4688C95.9613 47.8229 95.8363 48.125 95.5863 48.375ZM140.177 56.9375C140.469 56.8125 140.75 56.8542 141.021 57.0625C141.313 57.2708 141.469 57.5833 141.49 58C141.532 58.3958 141.365 58.8646 140.99 59.4062C140.427 60.1562 139.344 61.1875 137.74 62.5C136.157 63.8125 135.084 64.5938 134.521 64.8438C132.313 65.7604 130.365 65.8021 128.677 64.9688C127.907 64.5938 127.24 63.8854 126.677 62.8438C126.136 61.8021 125.75 60.8646 125.521 60.0312C125.292 59.1771 125.157 58.75 125.115 58.75C124.761 58.75 124.146 59.2083 123.271 60.125C122.396 61.0417 121.605 62.0521 120.896 63.1562C119 66.1562 117.48 67.7604 116.334 67.9688C115.771 68.0729 115.375 67.8021 115.146 67.1562C115 66.8021 115.198 64.875 115.74 61.375C116.282 57.875 116.823 55.0104 117.365 52.7812C117.615 51.8438 117.969 51.1875 118.427 50.8125C118.886 50.4375 119.323 50.4479 119.74 50.8438C120.032 51.1354 119.865 53.0312 119.24 56.5312C118.594 60.0729 118.271 61.9167 118.271 62.0625C118.271 62.1458 118.459 61.9583 118.834 61.5C119.084 61.2083 119.375 60.8333 119.709 60.375C120.625 59.125 121.73 58.0521 123.021 57.1562C124.334 56.2396 125.355 55.8333 126.084 55.9375C126.542 56 126.886 56.2083 127.115 56.5625C127.344 56.9167 127.594 57.6458 127.865 58.75C128.573 61.5833 129.875 63 131.771 63C132.521 63 133.375 62.6979 134.334 62.0938C135.292 61.4896 136.136 60.8333 136.865 60.125C137.594 59.3958 138.282 58.6979 138.927 58.0312C139.594 57.3646 140.011 57 140.177 56.9375ZM207.829 71.3125C207.579 71.4167 206.485 71.5625 204.548 71.75C202.631 71.9167 199.891 72.3333 196.329 73C192.766 73.6458 189.058 74.5729 185.204 75.7812C180.558 77.2396 176.308 79.1354 172.454 81.4688C168.62 83.8229 165.339 86.4792 162.61 89.4375C161.214 90.9792 160.298 91.8958 159.86 92.1875C159.443 92.5 159.016 92.5104 158.579 92.2188C158.287 92.0312 158.131 91.8229 158.11 91.5938C158.11 91.3646 158.214 90.9792 158.423 90.4375C159.235 88.4167 160.975 84.3333 163.641 78.1875C169.475 64.5208 173.391 55.0833 175.391 49.875C177.412 44.6667 179.412 38.75 181.391 32.125C183.016 26.6667 183.777 23.8333 183.673 23.625C183.631 23.5208 183.443 23.7188 183.11 24.2188C183.089 24.2396 183.068 24.2604 183.048 24.2812C182.61 24.9062 182.131 25.1667 181.61 25.0625C181.11 24.9583 180.86 24.5417 180.86 23.8125C180.86 23.5417 181.068 22.9792 181.485 22.125C181.923 21.25 182.443 20.3438 183.048 19.4062C184.527 16.9479 185.589 14.8542 186.235 13.125C186.964 11.2708 187.61 10.3438 188.173 10.3438C188.735 10.3438 189.12 10.5104 189.329 10.8438C189.62 11.3021 188.6 15.7083 186.266 24.0625C183.954 32.3958 181.756 39.5521 179.673 45.5312C178.027 50.2396 175.902 55.6458 173.298 61.75C167.027 76.6458 163.891 84.1667 163.891 84.3125C163.891 84.3542 164.048 84.2708 164.36 84.0625C164.673 83.8542 165.11 83.5417 165.673 83.125C166.256 82.7292 166.85 82.2917 167.454 81.8125C170.35 79.6458 174.568 77.4688 180.11 75.2812C185.673 73.0938 190.204 71.6667 193.704 71C195.537 70.6458 197.506 70.3333 199.61 70.0625C201.714 69.7708 203.527 69.5417 205.048 69.375C206.589 69.2083 207.402 69.1146 207.485 69.0938C208.006 68.9896 208.381 69.0938 208.61 69.4062C208.839 69.6979 208.87 70.0417 208.704 70.4375C208.558 70.8333 208.266 71.125 207.829 71.3125ZM217.826 59.625C219.868 57.4167 221.087 56.625 221.482 57.25C221.607 57.4583 221.67 57.8021 221.67 58.2812C221.67 58.7604 221.16 59.5938 220.139 60.7812C219.139 61.9688 218.035 63.0625 216.826 64.0625C215.639 65.0417 214.805 65.5312 214.326 65.5312C213.014 65.5312 212.16 64.9688 211.764 63.8438C211.368 62.7188 211.451 61.125 212.014 59.0625C212.68 56.7292 212.441 56.4479 211.295 58.2188C211.024 58.6354 210.712 59.1562 210.357 59.7812C208.128 63.7812 206.368 66.125 205.076 66.8125C204.451 67.1667 204.024 67.3542 203.795 67.375C203.587 67.375 203.139 67.2396 202.451 66.9688C201.722 66.6771 201.253 66.0521 201.045 65.0938C200.837 64.1146 200.837 62.5104 201.045 60.2812C201.524 54.8229 202.295 51.3125 203.357 49.75C203.837 49.0417 204.316 48.9271 204.795 49.4062C205.191 49.8021 205.128 51.2604 204.607 53.7812C204.232 55.5104 203.93 57.2292 203.701 58.9375C203.472 60.6458 203.357 61.9896 203.357 62.9688C203.357 63.9271 203.462 64.4583 203.67 64.5625C204.482 64.5625 206.41 61.8542 209.451 56.4375C210.826 54.0208 211.972 52.2708 212.889 51.1875C213.805 50.0833 214.618 49.5312 215.326 49.5312C216.118 49.5312 216.545 50.0104 216.607 50.9688C216.67 51.9271 216.368 53.4688 215.701 55.5938C214.43 59.7604 213.941 62.0625 214.232 62.5C214.503 62.8958 215.472 62.1875 217.139 60.375C217.347 60.1458 217.576 59.8958 217.826 59.625ZM239.324 55.4688C239.74 55.3646 240.022 55.4688 240.167 55.7812C240.334 56.0938 240.355 56.4583 240.23 56.875C240.126 57.2917 239.938 57.5833 239.667 57.75C239.459 57.875 239.136 57.9896 238.699 58.0938C238.261 58.1979 237.49 58.4375 236.386 58.8125C235.303 59.1875 233.99 59.7083 232.449 60.375C230.178 61.3542 228.647 62.0938 227.855 62.5938C227.084 63.0729 226.397 63.7396 225.792 64.5938C224.813 65.9688 223.813 66.875 222.792 67.3125C221.792 67.7292 220.834 67.6562 219.917 67.0938C219.334 66.7188 218.917 66.2604 218.667 65.7188C218.417 65.1771 218.334 64.6458 218.417 64.125C218.501 63.5833 218.584 63.1667 218.667 62.875C218.772 62.5833 218.876 62.3438 218.98 62.1562C219.188 61.8021 219.47 61.4583 219.824 61.125C220.178 60.7708 220.501 60.5312 220.792 60.4062C221.522 60.1146 221.886 59.6042 221.886 58.875C221.907 58.0833 222.417 56.8542 223.417 55.1875C224.438 53.5208 225.355 52.3958 226.167 51.8125C227.292 51 228.209 50.5625 228.917 50.5C229.647 50.4375 230.272 50.7083 230.792 51.3125C231.105 51.6667 231.313 51.9479 231.417 52.1562C231.542 52.3438 231.636 52.7083 231.699 53.25C231.761 53.7917 231.678 54.4375 231.449 55.1875C231.345 55.6667 231.188 56.1667 230.98 56.6875C230.792 57.2083 230.636 57.6146 230.511 57.9062C230.386 58.1979 230.324 58.3542 230.324 58.375C230.345 58.3958 231.011 58.1875 232.324 57.75C233.636 57.3125 235.042 56.8438 236.542 56.3438C238.063 55.8438 238.99 55.5521 239.324 55.4688ZM222.824 64.125C223.24 63.6875 223.49 63.3958 223.574 63.25C223.657 63.1042 223.667 62.9792 223.605 62.875C223.542 62.7708 223.324 62.625 222.949 62.4375C222.553 62.2083 222.251 62.125 222.042 62.1875C221.855 62.2292 221.657 62.4479 221.449 62.8438C221.261 63.2188 221.115 63.5938 221.011 63.9688C220.928 64.3438 220.907 64.6562 220.949 64.9062C221.011 65.1562 221.136 65.2812 221.324 65.2812C221.636 65.2812 222.136 64.8958 222.824 64.125ZM227.199 57.9062C228.178 56.2188 228.667 55.0104 228.667 54.2812C228.667 53.8021 228.615 53.5312 228.511 53.4688C228.407 53.4062 228.147 53.5 227.73 53.75C227.188 54.1042 226.48 55.0312 225.605 56.5312C224.73 58.0312 224.292 59.0833 224.292 59.6875C224.292 60.4167 224.563 60.6458 225.105 60.375C225.751 60.0625 226.449 59.2396 227.199 57.9062Z" fill="#AAAAAA"/>
  </svg>

  <svg viewBox="0 0 60 14" fill="none" id='spoon-large'>
    <g clip-path="url(#clip0_518_53)">
    <path d="M50.2524 14C55.6274 14 60 10.8598 60 6.99992C60 3.14005 55.6274 0 50.2524 0C45.1683 0 40.9832 2.80991 40.545 6.38058L33.5293 6.38058V4.90809L0 4.90809V9.09139L33.5295 9.09139V7.61908L40.5452 7.61908C40.9834 11.1899 45.1683 14 50.2524 14ZM32.2348 7.85305L1.29494 7.85305V6.14695L32.2348 6.14695V7.85305ZM41.7993 6.99992C41.7993 3.82322 45.5915 1.23885 50.2526 1.23885C54.9136 1.23885 58.7058 3.82322 58.7058 6.99992C58.7058 10.1768 54.9136 12.7613 50.2526 12.7613C45.5915 12.7613 41.7993 10.1768 41.7993 6.99992Z" fill="#DCCA87"/>
    </g>
    <defs>
      <clipPath id="clip0_518_53">
      <rect width="60" height="14" fill="white"/>
      </clipPath>
    </defs>
  </svg>

  <svg viewBox="0 0 16 16" fill="none" id='search'>
    <path d="M11.4351 10.0629H10.7124L10.4563 9.81589C11.3528 8.77301 11.8925 7.4191 11.8925 5.94625C11.8925 2.66209 9.23042 0 5.94625 0C2.66209 0 0 2.66209 0 5.94625C0 9.23042 2.66209 11.8925 5.94625 11.8925C7.4191 11.8925 8.77301 11.3528 9.81589 10.4563L10.0629 10.7124V11.4351L14.6369 16L16 14.6369L11.4351 10.0629ZM5.94625 10.0629C3.66838 10.0629 1.82962 8.22413 1.82962 5.94625C1.82962 3.66838 3.66838 1.82962 5.94625 1.82962C8.22413 1.82962 10.0629 3.66838 10.0629 5.94625C10.0629 8.22413 8.22413 10.0629 5.94625 10.0629Z" fill="white"/>
  </svg>

  <svg viewBox="0 0 21 21" id='comment'>
    <path d="M18.8333 0.083313H2.16659C1.02075 0.083313 0.083252 1.02081 0.083252 2.16665V20.9166L4.24992 16.75H18.8333C19.9791 16.75 20.9166 15.8125 20.9166 14.6666V2.16665C20.9166 1.02081 19.9791 0.083313 18.8333 0.083313ZM18.8333 14.6666H4.24992L2.16659 16.75V2.16665H18.8333V14.6666Z" fill="#DCCA87"/>
  </svg>

  <svg viewBox="0 0 21 20" id='like'>
    <path d="M15.1874 0.125C13.3749 0.125 11.6353 0.96875 10.4999 2.30208C9.3645 0.96875 7.62492 0.125 5.81242 0.125C2.60409 0.125 0.083252 2.64583 0.083252 5.85417C0.083252 9.79167 3.62492 13 8.9895 17.875L10.4999 19.2396L12.0103 17.8646C17.3749 13 20.9166 9.79167 20.9166 5.85417C20.9166 2.64583 18.3958 0.125 15.1874 0.125ZM10.6041 16.3229L10.4999 16.4271L10.3958 16.3229C5.43742 11.8333 2.16659 8.86458 2.16659 5.85417C2.16659 3.77083 3.72909 2.20833 5.81242 2.20833C7.41659 2.20833 8.97909 3.23958 9.53117 4.66667H11.4791C12.0208 3.23958 13.5833 2.20833 15.1874 2.20833C17.2708 2.20833 18.8333 3.77083 18.8333 5.85417C18.8333 8.86458 15.5624 11.8333 10.6041 16.3229Z" fill="#DCCA87"/>
  </svg>

</svg>
