<svg width="79" height="79" viewBox="0 0 79 79" fill="none" xmlns="http://www.w3.org/2000/svg">
<g opacity="0.7">
<path d="M20.6548 72.4161C21.2578 71.5499 20.9563 71.5499 21.8609 70.3372C21.8609 70.3372 21.8609 70.3372 21.7101 70.3372H21.5594C21.4086 70.5104 21.2578 70.6836 21.1071 71.0301C20.9563 71.2034 20.6548 71.3766 20.3532 71.3766C20.2025 71.3766 19.901 71.3766 19.7502 71.2034C19.4487 71.0301 19.2979 71.0302 18.9964 70.8569L18.0918 72.4161C18.8456 72.7626 20.0517 73.4556 20.6548 72.4161Z" fill="#F5EFDB"/>
<path d="M22.0118 68.9511C21.861 69.2976 21.861 69.4708 21.861 69.6441C21.861 69.6441 21.861 69.6441 22.0118 69.6441H22.1625C22.3133 68.4314 22.6148 68.4313 22.7656 67.5651C23.0671 66.3524 22.1625 65.8327 21.7102 65.313L20.8057 66.8722C21.1072 67.0454 21.258 67.2187 21.4087 67.3919C21.5595 67.5652 21.7102 67.7384 21.861 67.9116C22.0118 68.4314 22.0118 68.7779 22.0118 68.9511Z" fill="#F5EFDB"/>
<path d="M23.8204 73.4556C23.0666 73.1092 22.3128 73.4556 21.7097 73.9754C21.1067 74.6683 20.8051 75.5346 20.9559 76.7473C20.9559 76.7473 21.1067 76.4008 21.4082 75.881C21.7097 75.5346 22.0112 75.0148 22.6143 75.0148C23.5189 75.0148 25.328 76.0543 25.9311 74.6683C26.3834 73.8021 26.0819 73.6289 26.8357 72.4162L26.5342 72.2429C26.3834 72.4162 26.2326 72.5894 26.0819 72.9359C25.9311 73.2824 25.7803 73.2824 25.328 73.4556C24.8758 73.8021 24.4235 73.6289 23.8204 73.4556Z" fill="#F5EFDB"/>
<path d="M27.1375 69.8174C27.1375 69.1244 26.8359 68.6047 26.3836 68.2582C26.2329 68.085 25.9313 67.9117 25.7806 67.7385C25.6298 67.5652 25.3283 67.392 25.3283 67.2187C25.0268 66.8723 25.0268 66.3525 25.1775 65.8328C25.3283 65.313 25.4791 64.9666 25.4791 64.9666C24.7252 65.6595 24.4237 66.5258 24.2729 67.392C24.2729 68.2582 24.5745 69.1244 25.1775 69.2976C25.7806 69.4709 26.0821 69.8174 26.3836 69.9906C26.6852 70.3371 26.6852 70.5104 26.6852 70.8569C26.6852 71.2033 26.6852 71.3766 26.6852 71.5498L26.9867 71.7231C26.8359 70.6836 26.9867 70.6836 27.1375 69.8174Z" fill="#F5EFDB"/>
<path d="M29.0974 75.1886C28.6451 75.0154 28.3436 75.1886 27.8913 75.3618C27.5898 75.5351 27.2882 75.8816 26.9867 76.228C26.5344 76.921 26.3837 77.9605 26.6852 78.9999C26.6852 78.9999 26.6852 78.6535 26.9867 78.1337C27.1375 77.614 27.439 77.2675 28.0421 77.0943C28.3436 77.0943 28.4944 77.0943 28.7959 77.0943C29.0974 77.0943 29.3989 77.0943 29.7005 77.0943C30.3035 77.0943 30.9066 76.9211 31.0573 76.0548C31.3589 75.0154 31.0573 75.0153 31.5096 73.6294H31.2081C31.2081 73.8026 31.0573 73.9759 30.9066 74.4956C30.9066 74.8421 30.6051 75.0154 30.3035 75.1886C30.1528 75.1886 29.7005 75.1886 29.0974 75.1886Z" fill="#F5EFDB"/>
<path d="M31.8114 70.8579C31.8114 70.1649 31.3591 69.8184 30.9068 69.4719C30.6053 69.2986 30.4545 69.2987 30.153 69.1254C29.8515 68.9522 29.7007 68.9521 29.5499 68.7789C29.2484 68.4324 29.2484 67.9127 29.2484 67.393C29.2484 66.8732 29.3992 66.5267 29.3992 66.5267C28.7961 67.393 28.4946 68.4324 28.6454 69.2986C28.6454 69.6451 28.7961 70.1649 28.9469 70.5114C29.0976 70.8578 29.3992 71.0311 29.8515 71.2043C30.4545 71.3776 30.756 71.5508 31.0576 71.7241C31.3591 71.8973 31.5099 72.2438 31.5099 72.4171C31.5099 72.7636 31.5099 72.9368 31.5099 73.11C31.5099 73.11 31.5099 73.11 31.6606 73.11H31.8114C31.6606 71.8973 31.8114 71.7241 31.8114 70.8579Z" fill="#F5EFDB"/>
<path d="M5.72897 54.398C6.63355 54.2247 6.48279 53.8782 7.6889 53.705L7.53813 53.3585C7.38737 53.3585 7.08584 53.3585 6.78432 53.5318C6.48279 53.5318 6.33202 53.5318 6.0305 53.1853C5.72897 52.8388 5.57821 52.3191 5.27668 51.6261L3.76904 52.3191C3.91981 52.8388 4.22133 53.3585 4.52286 53.705C4.82439 54.2247 5.27668 54.398 5.72897 54.398Z" fill="#F5EFDB"/>
<path d="M8.59388 52.6657C8.29236 52.8389 8.14159 53.0121 8.14159 53.0121L8.29236 53.3587C9.19694 52.4924 9.34771 52.8389 9.95076 52.1459C10.4031 51.7994 10.5538 51.453 10.5538 50.9332C10.5538 50.4135 10.4031 50.067 10.4031 49.5472L8.89541 50.2402C9.04618 50.9332 9.19694 51.2797 9.19694 51.7995C8.89541 52.1459 8.89541 52.4924 8.59388 52.6657Z" fill="#F5EFDB"/>
<path d="M7.53815 57.3437C7.08586 56.4774 6.33204 56.131 5.57822 56.131C4.8244 56.131 3.91982 56.6507 3.46753 57.6902C3.46753 57.6902 3.76906 57.5169 4.22135 57.3437C4.67364 57.1704 5.12593 57.1704 5.57822 57.5169C5.72898 57.6902 5.87975 57.8634 6.18128 58.2099C6.33204 58.5564 6.4828 58.7296 6.78433 59.0761C7.23662 59.5959 7.68891 59.9423 8.29197 59.7691C9.04578 59.4226 9.04578 59.0762 10.2519 58.7297L10.1011 58.3832C9.95036 58.3832 9.64884 58.5564 9.34731 58.7297C9.04578 58.9029 8.89502 58.7297 8.59349 58.5564C8.29196 58.5564 7.83967 58.0367 7.53815 57.3437Z" fill="#F5EFDB"/>
<path d="M12.2121 56.998C12.6644 56.4783 12.6644 55.9586 12.5136 55.2656C12.3629 54.9191 12.3629 54.7458 12.2121 54.3993C12.0613 54.0529 12.0613 53.8796 12.0613 53.7063C12.0613 53.1866 12.3629 52.8401 12.8152 52.4936C13.1167 52.1472 13.569 51.9739 13.569 51.9739C12.6644 51.9739 11.7598 52.3204 11.3075 53.0134C10.7045 53.7063 10.5537 54.3993 10.8552 55.2656C11.1568 55.7853 11.3075 56.305 11.3075 56.6515C11.3075 56.998 11.3075 57.3445 11.006 57.5177C10.8552 57.691 10.7045 57.8642 10.5537 58.0374L10.7045 58.384C11.4583 57.5177 11.6091 57.691 12.2121 56.998Z" fill="#F5EFDB"/>
<path d="M10.704 62.5405C10.101 61.8475 9.34716 61.501 8.59334 61.8475C8.14105 62.0207 7.83953 62.194 7.538 62.5405C7.23647 62.8869 6.93494 63.2335 6.78418 63.9264C6.78418 63.9264 7.08571 63.5799 7.538 63.4067C7.99029 63.2334 8.44258 63.0602 8.89487 63.4067C9.34716 63.7532 9.79945 64.2729 10.2517 64.7927C10.704 65.3124 11.3071 65.4856 11.9101 65.1391C12.664 64.6194 12.5132 64.4462 13.5685 63.7532L13.4178 63.5799C13.267 63.5799 13.1163 63.7532 12.8147 64.0997C12.2117 63.9264 11.4579 63.7532 10.704 62.5405Z" fill="#F5EFDB"/>
<path d="M15.0761 61.329C15.5284 60.6361 15.3777 60.1163 15.0761 59.5966C14.9254 59.0769 14.4731 58.5571 14.4731 58.2106C14.4731 57.6909 14.6238 57.1712 14.9254 56.8247C15.2269 56.4782 15.5284 56.3049 15.5284 56.3049C15.0761 56.4782 14.6238 56.6515 14.3223 56.8247C14.0208 56.9979 13.7193 57.3444 13.4177 57.6909C13.267 58.0374 13.1162 58.3839 13.1162 58.9036C13.1162 59.2501 13.1162 59.7698 13.4177 59.9431C13.7193 60.4628 14.0208 60.9826 14.0208 61.329C14.1716 61.6755 14.0208 62.022 13.87 62.1953C13.7193 62.3685 13.5685 62.715 13.5685 62.715L13.7193 62.8882C14.4731 61.8488 14.6238 62.022 15.0761 61.329Z" fill="#F5EFDB"/>
<path d="M14.4733 67.0445C14.1718 66.698 13.8703 66.5248 13.418 66.5248C13.1164 66.5248 12.6641 66.5247 12.3626 66.698C11.6088 67.0445 11.0057 67.9107 10.855 68.9501C10.855 68.9501 11.1565 68.6036 11.458 68.4304C11.7596 68.0839 12.3626 67.9107 12.8149 68.0839C12.9657 68.0839 13.2672 68.2572 13.5687 68.6036C13.8703 68.7769 14.1718 68.9501 14.3225 69.1234C14.6241 69.2966 14.9256 69.4698 15.2271 69.4698C15.5287 69.4698 15.8302 69.4699 15.9809 69.1234C16.584 68.4304 16.4332 68.2572 17.4886 67.391L17.1871 67.2177C17.0363 67.391 16.8855 67.5642 16.584 67.7374C16.2825 68.0839 15.5287 68.0839 14.4733 67.0445Z" fill="#F5EFDB"/>
<path d="M18.6951 64.9667C18.8459 64.6202 18.8459 64.2737 18.8459 64.1005C18.8459 63.754 18.6951 63.5808 18.5444 63.4075C18.3936 63.2343 18.2428 62.8878 18.0921 62.7145C17.9413 62.5413 17.7905 62.3681 17.7905 62.0216C17.6398 61.5018 17.7905 60.9821 18.0921 60.6356C18.3936 60.2891 18.5444 59.9426 18.5444 59.9426C17.6398 60.2891 17.0367 60.9821 16.7352 61.8483C16.5844 62.1948 16.4337 62.7146 16.5844 63.0611C16.5844 63.4075 16.7352 63.754 17.0367 64.1005C17.9413 64.9667 18.0921 65.6597 17.9413 66.1794C17.7905 66.5259 17.7905 66.6991 17.6398 66.8724L17.9413 67.0456C18.0921 65.6597 18.2428 65.8329 18.6951 64.9667Z" fill="#F5EFDB"/>
<path d="M15.679 73.4554C15.679 73.4554 15.8298 73.1089 16.1313 72.7624C16.4328 72.4159 16.8851 72.0694 17.3374 72.2427C17.4882 72.2427 17.7897 72.4159 18.0912 72.4159L18.9958 70.8568C18.6943 70.6835 18.242 70.5103 17.9405 70.5103C17.6389 70.5103 17.1867 70.6835 16.8851 70.8568C16.1313 71.3765 15.5283 72.2427 15.679 73.4554Z" fill="#F5EFDB"/>
<path d="M21.711 62.7144C20.9567 63.2341 20.3533 64.1003 20.2025 64.9665C20.0516 65.313 20.0516 65.8328 20.2025 66.1793C20.3533 66.5257 20.5042 66.8722 20.8059 67.0455L21.711 65.4863C21.5601 65.313 21.4093 65.1398 21.2584 64.9665C21.1076 64.62 21.2584 63.9271 21.4093 63.5806C21.5601 63.0608 21.711 62.7144 21.711 62.7144Z" fill="#F5EFDB"/>
<path d="M17.4884 66.6998C17.4884 66.6998 17.4884 66.6998 17.3376 66.5266C17.1869 66.5266 17.0361 66.3533 16.8853 66.18C16.5838 65.8336 16.1315 65.487 15.6792 64.9673C15.5285 64.7941 15.2269 64.4476 15.0762 64.2744C14.9254 64.1011 14.6239 63.7546 14.4731 63.5814C14.3224 63.4081 14.1716 63.2349 14.0208 63.0617C13.8701 62.8884 13.8701 62.8884 13.8701 62.8884L13.7193 62.7152C13.7193 62.7152 13.5685 62.5419 13.267 62.0222C12.9655 61.6757 12.5132 61.156 12.2117 60.6362C12.0609 60.2897 11.9101 60.1165 11.6086 59.77C11.4579 59.5968 11.4579 59.5968 11.3071 59.4235C11.3071 59.2503 11.1563 59.2503 11.1563 59.077C10.8548 58.7305 10.704 58.3841 10.704 58.3841L10.5533 58.0376C10.5533 58.0376 10.4025 57.6911 10.101 57.3446C9.95022 57.1714 9.79945 56.8249 9.64869 56.6516C9.49793 56.3051 9.34716 56.1319 9.1964 55.7854C9.1964 55.6122 9.04564 55.4389 9.04564 55.2657C9.04564 55.0925 8.89487 54.9192 8.89487 54.7459C8.74411 54.3995 8.59334 54.2262 8.59334 53.8797C8.44258 53.7065 8.44258 53.5333 8.44258 53.36C8.44258 53.1868 8.29182 53.1868 8.29182 53.1868L8.14105 52.8402C8.14105 52.8402 8.14105 52.667 7.99029 52.4938C7.83952 52.3205 7.83953 51.9741 7.68876 51.8008C7.538 51.4543 7.538 51.2811 7.38723 51.1078C7.38723 50.9346 7.23647 50.7614 7.23647 50.7614L6.78418 50.9346C6.78418 50.9346 6.78418 51.1078 6.93494 51.2811C6.93494 51.4543 7.08571 51.8008 7.23647 52.1473C7.38723 52.4938 7.38723 52.667 7.538 52.8402C7.68876 53.0135 7.68876 53.1868 7.68876 53.1868L7.83952 53.5333C7.83952 53.5333 7.83952 53.5332 7.99029 53.7065C7.99029 53.8797 8.14105 54.053 8.29182 54.2262C8.44258 54.3995 8.44258 54.746 8.59334 55.0924C8.59334 55.2657 8.74411 55.4389 8.74411 55.6122C8.74411 55.7854 8.89487 55.9587 8.89487 56.1319C9.04564 56.4784 9.1964 56.8249 9.34716 56.9981C9.49793 57.3446 9.64869 57.5179 9.79945 57.6911C9.95022 57.8644 9.95022 58.0376 10.101 58.2108C10.101 58.3841 10.2517 58.3841 10.2517 58.3841L10.4025 58.7306C10.4025 58.7306 10.5533 59.0771 10.8548 59.4235C11.0056 59.5968 11.1563 59.9433 11.3071 60.1165C11.4579 60.463 11.6086 60.6362 11.9101 60.9827C12.3624 61.5025 12.664 62.0222 12.9655 62.5419C13.267 62.8884 13.4178 63.2349 13.4178 63.2349L13.5685 63.4081C13.5685 63.4081 13.5685 63.4081 13.7193 63.5814C13.8701 63.7546 14.0208 63.9279 14.1716 64.1011C14.3224 64.2743 14.4731 64.4476 14.7747 64.7941C14.9254 64.9674 15.2269 65.3138 15.3777 65.4871C15.83 66.0068 16.2823 66.3533 16.7346 66.6998C16.8853 66.873 17.0361 67.0463 17.1869 67.0463C17.3376 67.2195 17.3376 67.2195 17.3376 67.2195L17.6392 67.3928C17.6392 67.3928 17.7899 67.566 17.9407 67.7392C18.0915 67.9125 18.393 68.0857 18.6945 68.4322C19.2976 68.9519 19.9006 69.2984 19.9006 69.2984L20.2022 68.7787C20.2022 68.7787 19.5991 68.4322 18.996 67.9125C18.6945 67.7392 18.393 67.566 18.2422 67.2195C18.0915 67.0463 17.9407 66.873 17.9407 66.873L17.4884 66.6998Z" fill="#F5EFDB"/>
<path d="M4.37215 29.4518C5.12597 29.9716 5.27673 29.625 6.33208 30.4913L6.48284 30.1448C6.33208 29.9715 6.18132 29.7983 5.87979 29.625C5.72903 29.4518 5.57826 29.2786 5.4275 28.7588C5.4275 28.4123 5.4275 27.7193 5.72903 27.0263L4.22139 26.3334C4.07063 26.8531 3.91986 27.3729 3.91986 28.0658C3.7691 28.5856 3.91986 29.1053 4.37215 29.4518Z" fill="#F5EFDB"/>
<path d="M7.538 30.3183C7.23647 30.3183 7.08571 30.3183 6.93494 30.3183L6.78418 30.6648C7.83952 30.6648 7.83952 31.0113 8.74411 31.0113C9.1964 31.0113 9.64869 30.838 9.79945 30.4915C10.101 30.145 10.2517 29.7985 10.4025 29.2788L8.89487 28.5858C8.74411 29.2788 8.44258 29.6253 8.29182 29.9718C8.14105 30.145 7.83952 30.3183 7.538 30.3183Z" fill="#F5EFDB"/>
<path d="M4.07095 33.0905C4.22171 32.5707 4.07095 32.2243 3.92019 31.7045C3.76943 31.358 3.4679 31.0115 3.16637 30.6651C2.56332 30.1453 1.65873 29.9721 0.75415 30.3186C0.75415 30.3186 1.05568 30.3186 1.50797 30.6651C1.96026 30.8383 2.26179 31.1848 2.41255 31.8778C2.41255 32.2242 2.41255 32.3975 2.41255 32.744C2.41255 33.0905 2.41255 33.437 2.41255 33.7834C2.41255 34.4764 2.56331 35.1694 3.31713 35.3426C4.22171 35.6891 4.22172 35.3426 5.42783 35.8624V35.5159C5.27706 35.5159 5.1263 35.3426 4.67401 35.1694C4.37248 35.1694 4.22171 34.8229 4.22171 34.4764C4.07095 34.4764 3.92019 33.7834 4.07095 33.0905Z" fill="#F5EFDB"/>
<path d="M7.83932 36.2088C8.44238 36.2088 8.7439 35.6891 9.04543 35.1693C9.1962 34.8228 9.19619 34.6496 9.34696 34.3031C9.49772 33.9566 9.49772 33.7833 9.64849 33.6101C9.95001 33.2636 10.4023 33.2636 10.8546 33.2636C11.3069 33.2636 11.6084 33.4369 11.6084 33.4369C10.8546 32.7439 10.1008 32.3974 9.1962 32.5706C8.7439 32.5706 8.44238 32.7439 8.14085 32.9171C7.83932 33.0904 7.68856 33.4368 7.5378 33.9566C7.38703 34.6496 7.23627 34.9961 7.0855 35.3426C6.93474 35.6891 6.63321 35.8623 6.48245 35.8623C6.18092 35.8623 6.03016 35.8623 5.87939 35.8623C5.87939 35.8623 5.87939 35.8623 5.87939 36.0356V36.2088C6.93474 36.0355 6.93474 36.382 7.83932 36.2088Z" fill="#F5EFDB"/>
<path d="M3.61833 39.3272C3.61833 38.4609 3.16604 37.5947 2.41222 37.2483C1.6584 36.9018 0.753818 36.7285 0 37.4215C0 37.4215 0.301527 37.4215 0.753818 37.5947C1.20611 37.768 1.6584 37.9412 1.80916 38.6342C1.95993 38.8074 1.95993 39.1539 1.95993 39.5004C1.95993 39.8469 2.11069 40.1934 2.11069 40.5398C2.26145 41.2328 2.56298 41.9258 3.16604 41.9258C4.07062 42.099 4.07062 41.7526 5.27673 42.099V41.7525C5.12596 41.7525 4.82444 41.5793 4.52291 41.5793C4.22138 41.5793 4.07062 41.4061 3.91986 40.8863C3.61833 40.7131 3.61833 40.1934 3.61833 39.3272Z" fill="#F5EFDB"/>
<path d="M7.68882 41.7516C8.29187 41.5784 8.5934 41.0586 8.74416 40.5389C8.74416 40.1924 8.89493 40.0192 8.89493 39.6727C8.89493 39.3262 9.04569 39.153 9.04569 38.9797C9.19646 38.6332 9.79951 38.46 10.101 38.2867C10.5533 38.2867 10.8549 38.2867 10.8549 38.2867C10.101 37.767 9.19646 37.5938 8.44264 37.767C7.68882 37.9402 7.23653 38.6332 7.08576 39.4994C7.08576 40.1924 6.935 40.7122 6.78424 41.0586C6.63347 41.4051 6.48271 41.5784 6.18118 41.7516C5.87965 41.7516 5.72889 41.9249 5.57812 41.9249V42.2714C6.78423 41.5784 6.935 41.9249 7.68882 41.7516Z" fill="#F5EFDB"/>
<path d="M3.91997 45.5626C3.91997 45.0429 3.61844 44.6964 3.46768 44.3499C3.16615 44.0034 2.86462 43.8302 2.5631 43.6569C1.80928 43.4837 0.904697 43.4837 0.150879 44.3499C0.150879 44.3499 0.452406 44.3499 0.904697 44.3499C1.35699 44.3499 1.80928 44.5232 2.11081 45.0429C2.41233 45.5626 2.41233 46.2556 2.71386 46.9486C3.01539 47.6415 3.31692 48.1613 3.91997 48.1613C4.82455 48.1613 4.82455 47.8148 6.03066 47.988C6.03066 47.988 6.03066 47.988 6.03066 47.8148V47.6416C5.8799 47.6416 5.57837 47.6416 5.27684 47.6416C4.97532 47.6416 4.82455 47.4683 4.52303 47.1218C4.37226 46.9486 4.37226 46.7753 4.2215 46.4289C4.07073 46.2556 4.07073 45.9091 3.91997 45.5626Z" fill="#F5EFDB"/>
<path d="M8.44258 47.1222C9.04564 46.7757 9.1964 46.256 9.1964 45.7362C9.1964 45.2165 9.1964 44.5235 9.34716 44.177C9.49792 43.6573 9.95022 43.4841 10.4025 43.3108C10.8548 43.1376 11.1563 43.1376 11.1563 43.1376C10.2517 42.7911 9.34716 42.7911 8.74411 43.1376C8.44258 43.3108 8.14105 43.6573 7.99029 43.8305C7.83952 44.177 7.68876 44.5235 7.83952 45.0433C7.83952 45.3897 7.83952 45.7362 7.83952 45.9095C7.83952 46.0827 7.83952 46.4292 7.83952 46.6024C7.68876 46.9489 7.538 47.2954 7.38723 47.2954C7.08571 47.4687 6.93494 47.4687 6.78418 47.6419C6.78418 47.6419 6.78418 47.6419 6.78418 47.8152V47.9884C7.538 47.2954 7.68876 47.4687 8.44258 47.1222Z" fill="#F5EFDB"/>
<path d="M1.35767 51.2806C1.35767 51.2806 1.65919 51.1073 2.11148 51.1073C2.56378 51.1073 3.01607 51.1073 3.46836 51.6271C3.61912 51.8003 3.76989 51.9736 3.92065 52.32L5.42829 51.6271C5.27753 51.1073 5.12676 50.7608 4.82523 50.5876C4.67447 50.4143 4.52371 50.4143 4.37294 50.2411C4.22218 50.2411 4.07141 50.0679 3.76989 50.0679C2.8653 50.0679 1.96072 50.4143 1.35767 51.2806Z" fill="#F5EFDB"/>
<path d="M11.9105 47.6439C11.0059 47.4707 10.1013 47.644 9.49824 48.1637C9.34747 48.3369 9.19671 48.5102 9.04595 48.5102C8.89519 48.6834 8.89518 48.8567 8.74442 49.0299C8.59366 49.3764 8.59366 49.7228 8.74442 50.2426L10.2521 49.5496C10.2521 49.3764 10.2521 49.0299 10.2521 48.8566C10.4028 48.3369 10.7043 47.9904 11.1566 47.8172C11.6089 47.8172 11.9105 47.6439 11.9105 47.6439Z" fill="#F5EFDB"/>
<path d="M6.48308 47.4687C6.48308 47.4687 6.48308 47.1222 6.33231 46.6025C6.18155 46.0827 6.18155 45.3898 6.03079 44.6968C6.03079 44.3503 5.88002 44.0038 5.88002 43.6573C5.88002 43.3108 5.88002 42.9643 5.72926 42.7911C5.72926 42.6179 5.72926 42.2714 5.72926 42.0981C5.72926 41.9249 5.72926 41.9249 5.72926 41.9249V41.5784C5.72926 41.5784 5.72926 41.5784 5.72926 41.4051C5.72926 41.2319 5.72926 41.0587 5.72926 40.7122C5.72926 40.5389 5.72926 40.1924 5.72926 39.846C5.72926 39.4995 5.72926 39.153 5.72926 38.8065C5.72926 38.1135 5.72926 37.4205 5.88002 36.9008C5.88002 36.3811 5.88002 36.0346 5.88002 36.0346C5.88002 36.0346 5.88002 36.0346 5.88002 35.8613V35.6881C5.88002 35.6881 5.88002 35.3416 6.03079 34.8219C6.03079 34.6486 6.03079 34.3021 6.18155 33.9556C6.18155 33.6092 6.33231 33.2627 6.33231 32.9162C6.33231 32.7429 6.33231 32.5697 6.48308 32.3965C6.48308 32.2232 6.48308 32.05 6.63384 31.8767C6.63384 31.5302 6.78461 31.1837 6.78461 31.0105C6.78461 30.8373 6.93537 30.4908 6.93537 30.4908C6.93537 30.3175 6.93537 30.3175 6.93537 30.3175L7.08613 29.971C7.08613 29.971 7.08613 29.7978 7.2369 29.6245C7.2369 29.4513 7.2369 29.4513 7.38766 29.2781C7.38766 29.1048 7.53842 28.9316 7.53842 28.9316C7.68919 28.4118 7.83995 27.8921 7.83995 27.8921L7.38766 27.7189C7.38766 27.7189 7.2369 28.2386 7.08613 28.9316C6.93537 29.2781 6.93537 29.4513 6.93537 29.7978C6.93537 29.971 6.78461 30.1443 6.78461 30.1443L6.63384 30.4908C6.63384 30.4908 6.63384 30.4908 6.63384 30.664C6.63384 30.8373 6.48308 31.0105 6.48308 31.357C6.48308 31.5302 6.33231 31.8767 6.33231 32.2232C6.33231 32.3964 6.33232 32.5697 6.18155 32.7429C6.18155 32.9162 6.18155 33.0894 6.03079 33.2627C6.03079 33.6092 5.88002 33.9557 5.88002 34.3022C5.88002 34.6486 5.72926 34.9951 5.72926 35.1684C5.72926 35.6881 5.5785 36.0346 5.5785 36.0346V36.3811C5.5785 36.3811 5.5785 36.7276 5.5785 37.2473C5.5785 37.767 5.5785 38.46 5.42773 39.153C5.42773 39.4994 5.42773 39.8459 5.42773 40.1924C5.42773 40.5389 5.42773 40.8854 5.42773 41.0587C5.42773 41.4051 5.42773 41.5784 5.42773 41.7516C5.42773 41.9249 5.42773 41.9249 5.42773 41.9249V42.2714V42.4446C5.42773 42.6179 5.42773 42.7911 5.42773 43.1376C5.42773 43.3108 5.42773 43.6573 5.5785 44.0038C5.5785 44.3503 5.5785 44.6968 5.72926 45.0433C5.88002 45.7363 5.88002 46.4292 6.03079 46.9489C6.18155 47.4687 6.18155 47.8152 6.18155 47.8152C6.18155 47.8152 6.18155 47.8152 6.18155 47.9884V48.1617C6.18155 48.1617 6.33231 48.8546 6.48308 49.7209C6.63384 50.4138 6.93537 51.28 6.93537 51.28L7.38766 51.1068C7.38766 51.1068 7.2369 50.4138 6.93537 49.5476C6.78461 48.8546 6.63384 47.9884 6.63384 47.9884C6.63384 47.9884 6.48308 47.8152 6.48308 47.4687C6.48308 47.4687 6.48308 47.6419 6.48308 47.4687Z" fill="#F5EFDB"/>
<path d="M17.3379 9.35533C17.6394 10.2215 17.9409 10.2216 18.2424 11.6075L18.544 11.4342C18.544 11.261 18.3932 10.9145 18.2424 10.568C18.0917 10.2215 18.2424 10.0483 18.3932 9.70181C18.544 9.35533 18.9963 9.00885 19.5993 8.66237L18.8455 6.92993C18.6947 7.10318 18.3932 7.27642 18.2424 7.44967C18.0917 7.62291 17.9409 7.79613 17.7901 7.96938C17.3379 8.31586 17.1871 8.8356 17.3379 9.35533Z" fill="#F5EFDB"/>
<path d="M19.2983 12.3012C19.1475 12.128 18.9967 11.9547 18.846 11.7815L18.5444 11.9547C19.2983 12.8209 19.1475 12.9942 19.7505 13.6872C20.0521 14.0336 20.5044 14.2069 20.8059 14.0336C20.9567 14.0336 21.2582 13.8604 21.4089 13.8604C21.5597 13.8604 21.7105 13.6872 22.012 13.6872L21.2582 11.9547C20.8059 12.3012 20.3536 12.4745 20.0521 12.4745C19.7505 12.6477 19.449 12.4744 19.2983 12.3012Z" fill="#F5EFDB"/>
<path d="M15.0765 11.9535C15.6796 11.2606 15.9811 10.3944 15.6796 9.52814C15.5288 9.00841 15.3781 8.66193 15.0765 8.31544C14.775 7.96895 14.4735 7.62246 13.8704 7.44922C13.8704 7.44922 14.1719 7.79571 14.3227 8.31544C14.4735 8.83517 14.6242 9.35489 14.3227 9.87462C14.0212 10.3944 13.5689 10.9141 13.1166 11.4338C12.6643 11.9535 12.5135 12.6465 12.8151 13.3395C13.2674 14.2057 13.4181 14.0325 14.0212 15.2452L14.172 15.0719C14.172 14.8987 14.0212 14.7255 13.7197 14.379C13.8704 13.686 14.0212 12.993 15.0765 11.9535Z" fill="#F5EFDB"/>
<path d="M16.1318 17.1498C16.7348 17.6695 17.1871 17.4963 17.6394 17.1498C18.0917 16.9765 18.544 16.4568 18.8455 16.4568C19.2978 16.4568 19.5993 16.6301 20.0516 16.9765C20.3532 17.323 20.5039 17.6695 20.5039 17.6695C20.3532 17.1498 20.2024 16.63 20.0516 16.2836C19.9009 15.9371 19.5993 15.5906 19.2978 15.2441C18.9963 15.0708 18.6948 14.8976 18.2425 14.8976C17.9409 14.8976 17.4886 14.8976 17.3379 15.2441C16.8856 15.5906 16.4333 15.9371 16.1318 15.9371C15.8302 16.1103 15.5287 15.9371 15.378 15.7638C15.2272 15.5906 14.9257 15.4173 14.9257 15.4173L14.7749 15.5906C15.5287 16.2836 15.5287 16.4568 16.1318 17.1498Z" fill="#F5EFDB"/>
<path d="M11.1566 16.2847C11.4581 15.9382 11.6089 15.5917 11.6089 15.072C11.6089 14.7255 11.6089 14.2058 11.4581 13.8593C11.1566 12.9931 10.4028 12.3001 9.49819 12.1268C9.49819 12.1268 9.79972 12.4733 9.95048 12.8198C10.252 13.1663 10.4028 13.8593 10.252 14.379C10.252 14.5523 10.1012 14.8987 9.79972 15.2452C9.64895 15.5917 9.49819 15.9382 9.34742 16.1115C9.19666 16.4579 9.0459 16.8044 9.0459 17.1509C9.0459 17.4974 9.0459 17.8439 9.34742 18.0171C9.95048 18.7101 10.1012 18.5369 10.8551 19.7496L11.0058 19.4031C10.8551 19.2298 10.7043 19.0566 10.5535 18.7101C10.1012 18.3636 10.252 17.4974 11.1566 16.2847Z" fill="#F5EFDB"/>
<path d="M12.9659 21.1356C13.2674 21.3088 13.569 21.3088 13.7197 21.3088C14.0212 21.3088 14.172 21.1356 14.3228 20.9623C14.4735 20.7891 14.7751 20.6158 14.9258 20.4426C15.0766 20.2694 15.2274 20.0961 15.5289 20.0961C15.9812 19.9229 16.4335 20.0961 16.735 20.4426C17.0365 20.7891 17.338 20.9623 17.338 20.9623C17.0365 19.9229 16.4335 19.2299 15.6796 18.8834C15.3781 18.7102 14.9258 18.5369 14.6243 18.7102C14.3228 18.7102 14.0212 18.8834 13.7197 19.2299C12.9659 20.2693 12.3628 20.4426 11.9106 20.2694C11.609 20.0961 11.4583 20.0961 11.3075 19.9229L11.1567 20.2694C12.3628 20.4426 12.2121 20.7891 12.9659 21.1356Z" fill="#F5EFDB"/>
<path d="M7.99046 21.4824C8.14122 21.1359 8.29198 20.6162 8.29198 20.2697C8.29198 19.9232 8.14122 19.4035 7.99046 19.057C7.53817 18.364 6.78435 17.6711 5.729 17.8443C5.729 17.8443 6.03053 18.0175 6.33206 18.364C6.63358 18.7105 6.93511 19.2302 6.78435 19.75C6.78435 20.2697 6.33206 20.9627 6.1813 21.6557C6.03053 22.3486 6.03053 23.0416 6.48282 23.5613C7.23664 24.2543 7.23664 23.9078 8.29198 24.9473C8.29198 24.9473 8.29198 24.9473 8.29198 24.7741V24.6008C8.14122 24.4276 7.99046 24.2543 7.68893 24.0811C7.53817 23.9078 7.3874 23.5613 7.3874 23.2149C7.3874 23.0416 7.3874 22.6951 7.53817 22.5219C7.68893 22.0022 7.83969 21.8289 7.99046 21.4824Z" fill="#F5EFDB"/>
<path d="M10.5538 25.8129C11.1568 25.9861 11.6091 25.6396 11.9107 25.2931C12.2122 24.9466 12.5137 24.2537 12.8152 24.0804C13.1168 23.9072 13.7198 23.9072 14.0214 24.2537C14.4737 24.4269 14.7752 24.7734 14.7752 24.7734C14.3229 23.9072 13.5691 23.2142 12.8152 23.0409C12.5137 22.8677 12.0614 22.8677 11.7599 23.0409C11.4584 23.2142 11.1568 23.3874 11.0061 23.7339C10.8553 24.0804 10.7046 24.2536 10.5538 24.4269C10.403 24.6001 10.2523 24.7734 10.1015 24.9466C9.79997 25.1199 9.49845 25.2931 9.34768 25.1199C9.04616 24.9467 8.89539 24.9466 8.74463 24.9466C8.74463 24.9466 8.74463 24.9467 8.74463 25.1199V25.2931C9.79997 25.2931 9.64921 25.4664 10.5538 25.8129Z" fill="#F5EFDB"/>
<path d="M2.71387 23.908C2.71387 23.908 3.0154 24.0812 3.46769 24.4277C3.76921 24.7742 4.22151 25.1207 4.22151 25.8136C4.22151 25.9869 4.22151 26.3334 4.07074 26.6799L5.57838 27.3728C5.87991 26.5066 5.57838 25.6404 5.12609 24.9474C4.52303 24.0812 3.76921 23.5615 2.71387 23.908Z" fill="#F5EFDB"/>
<path d="M12.815 28.932C12.2119 28.0658 11.4581 27.7193 10.7043 27.546C9.95048 27.546 9.19666 27.8925 9.0459 28.5855L10.5535 29.2785C10.7043 29.1052 10.8551 28.932 10.8551 28.7587C11.1566 28.4122 11.6089 28.4123 12.0612 28.5855C12.5135 28.7588 12.815 28.932 12.815 28.932Z" fill="#F5EFDB"/>
<path d="M8.74445 24.7741C8.74445 24.7741 8.89522 24.4276 9.04598 24.0811C9.19675 23.5614 9.49827 23.0416 9.7998 22.3487C10.1013 21.8289 10.4029 21.136 10.7044 20.7895C11.0059 20.443 11.1567 20.0965 11.1567 20.0965L11.3074 19.75C11.3074 19.75 11.3074 19.75 11.4582 19.5768C11.4582 19.4035 11.609 19.2303 11.7597 19.057C12.0613 18.7105 12.3628 18.1908 12.8151 17.6711C12.9658 17.4978 13.2674 17.1513 13.4181 16.9781C13.5689 16.8049 13.8704 16.4584 14.0212 16.2851C14.1719 16.1119 14.3227 15.9386 14.4735 15.7654C14.6242 15.5921 14.6242 15.5921 14.6242 15.5921L14.775 15.4189C14.775 15.4189 14.9258 15.2456 15.3781 14.8992C15.6796 14.5527 16.1319 14.0329 16.5842 13.6864C16.8857 13.5132 17.0365 13.34 17.338 12.9935C17.4887 12.8202 17.4887 12.8202 17.6395 12.647C17.7903 12.647 17.7903 12.4737 17.941 12.4737C18.2426 12.1273 18.5441 11.954 18.5441 11.954L18.8456 11.7808C18.8456 11.7808 19.2979 11.4343 19.7502 11.0878C19.901 11.0878 19.901 10.9146 20.0517 10.9146C20.2025 10.9146 20.2025 10.7413 20.3533 10.7413C20.504 10.5681 20.6548 10.5681 20.6548 10.5681L20.3533 10.0483C20.3533 10.0483 20.2025 10.0483 20.0517 10.2216C19.901 10.2216 19.901 10.3948 19.7502 10.3948C19.5994 10.3948 19.5994 10.5681 19.4487 10.5681C19.2979 10.7413 18.9964 10.9145 18.8456 11.0878C18.6949 11.261 18.5441 11.261 18.5441 11.261L18.2426 11.4343C18.2426 11.4343 17.941 11.6075 17.6395 11.954C17.4887 12.1273 17.1872 12.3005 17.0365 12.4737C16.7349 12.647 16.5842 12.8202 16.2826 13.1667C15.8304 13.6864 15.3781 14.033 15.0765 14.3794C14.775 14.7259 14.4735 14.8992 14.4735 14.8992L14.3227 15.0724C14.3227 15.0724 14.3227 15.0724 14.1719 15.2457C14.0212 15.4189 13.8704 15.5921 13.7197 15.7654C13.5689 15.9386 13.4181 16.1119 13.1166 16.4584C12.9658 16.6316 12.6643 16.9781 12.5135 17.1513C12.0613 17.6711 11.7597 18.1908 11.4582 18.7105C11.3074 18.8838 11.1567 19.057 11.1567 19.2303C11.0059 19.4035 11.0059 19.4035 11.0059 19.4035L10.8551 19.75C10.8551 19.75 10.7044 20.0965 10.4029 20.443C10.2521 20.6162 10.1013 20.9627 9.95056 21.1359C9.7998 21.4824 9.64904 21.6557 9.49827 22.0022C9.19674 22.5219 8.89522 23.2149 8.59369 23.7346C8.44293 24.2543 8.29216 24.4276 8.29216 24.4276C8.29216 24.4276 8.29216 24.4276 8.29216 24.6008V24.7741C8.29216 24.7741 8.29216 24.9473 8.1414 25.2938C7.99064 25.6403 7.83987 25.9868 7.68911 26.3333C7.53835 26.6798 7.38758 27.0263 7.38758 27.3727C7.38758 27.546 7.23682 27.546 7.23682 27.7192V27.8925L7.68911 28.0657C7.68911 28.0657 7.68911 28.0657 7.68911 27.8925C7.68911 27.8925 7.68911 27.7192 7.83987 27.546C7.99063 27.1995 8.1414 26.853 8.1414 26.5065C8.29216 26.16 8.44293 25.8135 8.59369 25.467C8.74445 25.1206 8.74445 24.9473 8.74445 24.9473C8.74445 24.9473 8.74445 24.9473 8.74445 24.7741Z" fill="#F5EFDB"/>
<path d="M29.8511 4.3311C30.3034 4.15785 30.6049 3.9846 30.9065 3.81136C31.208 3.46487 31.3588 3.11837 31.5095 2.77189C31.6603 1.90567 31.6603 0.866219 30.9065 0C30.9065 0 30.9065 0.346488 30.9065 0.866219C30.9065 1.38595 30.7557 1.90569 30.3034 2.25217C29.8511 2.59866 29.2481 2.59865 28.645 2.94514C28.0419 3.29163 27.5897 3.63812 27.5897 4.3311C27.5897 5.37056 27.8912 5.37055 27.7404 6.7565C27.7404 6.7565 27.7404 6.7565 27.8912 6.7565H28.042C28.042 6.58325 28.042 6.23677 28.042 5.89028C28.042 5.54379 28.1927 5.37055 28.4942 5.02406C28.645 4.85082 28.7958 4.85082 29.0973 4.67758C29.2481 4.50433 29.5496 4.3311 29.8511 4.3311Z" fill="#F5EFDB"/>
<path d="M28.4941 9.3549C28.7956 10.0479 29.2479 10.2211 29.7002 10.2211C30.1525 10.2211 30.7555 10.2211 31.057 10.3944C31.5093 10.5676 31.6601 11.0873 31.8109 11.6071C31.9616 12.1268 31.9616 12.4733 31.9616 12.4733C32.2631 11.4338 32.2631 10.3944 31.9616 9.70138C31.8109 9.35489 31.5093 9.0084 31.3586 8.83516C31.057 8.66191 30.7555 8.48868 30.3032 8.66193C30.0017 8.66193 29.7002 8.66193 29.5494 8.66193C29.3986 8.66193 29.0971 8.66193 28.9463 8.66193C28.6448 8.48868 28.3433 8.31543 28.3433 8.14219C28.1925 7.7957 28.1925 7.62246 28.0418 7.44922C28.0418 7.44922 28.0418 7.44922 27.891 7.44922H27.7402C28.3433 8.31544 28.1925 8.48867 28.4941 9.3549Z" fill="#F5EFDB"/>
<path d="M24.5747 5.88971C25.027 5.71647 25.3285 5.54323 25.4792 5.19674C25.63 5.0235 25.63 4.85025 25.7808 4.67701C25.7808 4.50376 25.9315 4.33053 25.9315 3.98404C26.0823 3.11782 25.7808 2.07835 24.8762 1.38538C24.8762 1.38538 25.027 1.73186 25.027 2.2516C25.027 2.77133 25.027 3.29105 24.5747 3.81079C24.4239 3.98403 24.1224 4.15728 23.8208 4.33052C23.5193 4.50377 23.2178 4.67702 22.9163 4.85026C22.3132 5.19675 22.0117 5.71648 22.1624 6.5827C22.3132 7.62217 22.6147 7.4489 22.7655 8.83486L23.067 8.66163C23.067 8.48839 23.067 8.1419 22.9163 7.79541C22.9163 7.44892 22.9163 7.27568 23.2178 6.92919C23.5193 6.40945 23.9716 6.06296 24.5747 5.88971Z" fill="#F5EFDB"/>
<path d="M23.9714 11.0885C24.2729 11.7815 24.8759 11.7815 25.3282 11.7815C25.6298 11.7815 25.7805 11.6083 26.0821 11.6083C26.3836 11.6083 26.5343 11.6083 26.6851 11.6083C27.1374 11.7815 27.4389 12.128 27.5897 12.6477C27.7405 13.1675 27.8912 13.514 27.8912 13.514C28.042 12.4745 27.8912 11.435 27.4389 10.742C27.2882 10.5688 27.1374 10.3955 27.1374 10.2223C26.9866 10.0491 26.8359 10.0491 26.6851 9.87582C26.3836 9.70257 26.0821 9.70257 25.6298 9.87582C25.0267 10.0491 24.7252 10.2223 24.2729 10.2223C23.9714 10.2223 23.6698 10.0491 23.5191 9.87582C23.3683 9.52933 23.2175 9.35608 23.2175 9.35608L22.916 9.52933C23.6698 10.2223 23.5191 10.3955 23.9714 11.0885Z" fill="#F5EFDB"/>
<path d="M19.1466 3.81165C19.1466 3.81165 19.2974 4.15814 19.4482 4.67787C19.5989 5.19761 19.5989 5.71733 19.2974 6.23707C19.1466 6.41032 18.9959 6.58357 18.6943 6.75681L19.4482 8.48926C20.202 7.96953 20.5035 7.1033 20.5035 6.23707C20.5035 5.37084 20.0512 4.33138 19.1466 3.81165Z" fill="#F5EFDB"/>
<path d="M24.1223 15.2469C24.1223 14.2075 23.8208 13.168 23.2177 12.6483C22.6147 11.9553 22.0116 11.7821 21.2578 12.1286L22.0116 13.861C22.1624 13.861 22.4639 13.6877 22.6147 13.6877C23.067 13.6877 23.3685 14.0342 23.67 14.554C23.9716 14.7272 24.1223 15.2469 24.1223 15.2469Z" fill="#F5EFDB"/>
<path d="M32.5649 73.109C32.1126 73.109 31.8111 73.109 31.8111 73.109C31.8111 73.109 31.8111 73.109 31.6603 73.109H31.5096C31.5096 73.109 31.208 73.109 30.7557 72.9358C30.605 72.9358 30.3035 72.9358 30.0019 72.7625C29.7004 72.7625 29.3989 72.5893 29.0974 72.5893C28.9466 72.5893 28.7958 72.5893 28.6451 72.4161C28.4943 72.4161 28.3435 72.4161 28.1928 72.2428C27.8912 72.2428 27.5897 72.0696 27.4389 72.0696C27.2882 72.0696 26.9867 71.8963 26.9867 71.8963C26.8359 71.8963 26.8359 71.8963 26.8359 71.8963L26.5344 71.7231C26.5344 71.7231 26.5344 71.7231 26.3836 71.7231C26.2328 71.7231 26.0821 71.5499 25.9313 71.5499C25.7805 71.5499 25.479 71.3766 25.1775 71.2033C24.876 71.0301 24.5744 71.0301 24.4237 70.8569C23.8206 70.5104 23.3683 70.3371 22.916 70.1639C22.4637 69.9906 22.1622 69.8174 22.1622 69.8174C22.1622 69.8174 22.1622 69.8174 22.0115 69.8174H21.8607C21.8607 69.8174 21.4084 69.4709 20.9561 69.2977C20.6546 69.1244 20.5038 68.9512 20.3531 68.9512C20.2023 68.778 20.0515 68.778 20.0515 68.778L19.75 69.2977C19.75 69.2977 19.9008 69.2977 20.0515 69.4709C20.2023 69.6442 20.5038 69.8174 20.6546 69.8174C21.1069 70.1639 21.5592 70.3371 21.5592 70.3371C21.5592 70.3371 21.5592 70.3371 21.7099 70.3371H21.8607C21.8607 70.3371 22.1622 70.5104 22.6145 70.6836C23.0668 70.8569 23.6699 71.2034 24.1221 71.3766C24.4237 71.5498 24.7252 71.5499 25.0267 71.7231C25.3283 71.8964 25.479 71.8963 25.7805 72.0696C26.2328 72.2428 26.5344 72.2428 26.5344 72.2428L26.8359 72.4161C26.8359 72.4161 26.8359 72.4161 26.9867 72.4161C27.1374 72.4161 27.2882 72.5893 27.5897 72.5893C27.7405 72.5893 28.042 72.7625 28.3435 72.7625C28.4943 72.7625 28.6451 72.7625 28.7958 72.9358C28.9466 72.9358 29.0973 72.9358 29.2481 73.109C29.5496 73.109 29.8512 73.2823 30.1527 73.2823C30.4542 73.2823 30.7557 73.4555 30.9065 73.4555C31.3588 73.4555 31.6603 73.6287 31.6603 73.6287H31.9619C31.9619 73.6287 32.2634 73.6287 32.7157 73.6287H32.8664V72.9358C32.7157 73.109 32.5649 73.109 32.5649 73.109Z" fill="#F5EFDB"/>
<path d="M32.1129 5.89063C31.8113 5.89063 31.6606 5.89065 31.359 6.06389C31.0575 6.06389 30.756 6.06387 30.4544 6.23712C29.8514 6.41036 29.2483 6.41038 28.7961 6.58362C28.3438 6.75687 28.0422 6.75685 28.0422 6.75685C28.0422 6.75685 28.0422 6.75685 27.8915 6.75685H27.7407C27.7407 6.75685 27.4392 6.93011 26.9869 6.93011C26.8361 6.93011 26.5346 7.10333 26.2331 7.10333C25.9315 7.27658 25.63 7.2766 25.3285 7.44984C25.027 7.62308 24.7254 7.62308 24.4239 7.79632C24.1224 7.96956 23.9716 7.96956 23.6701 8.1428C23.5193 8.31605 23.2178 8.31606 23.2178 8.31606C23.067 8.31606 23.067 8.48928 23.067 8.48928L22.7655 8.66254C22.7655 8.66254 22.6147 8.66252 22.3132 8.83577C22.0117 9.00901 21.7102 9.18226 21.4086 9.3555C21.1071 9.52874 20.8056 9.70199 20.504 9.87524C20.2025 10.0485 20.0518 10.0485 20.0518 10.0485L20.3533 10.5682C20.3533 10.5682 20.504 10.395 20.6548 10.395C20.8056 10.2217 21.2579 10.0485 21.5594 9.87524C21.8609 9.70199 22.1624 9.52874 22.464 9.3555C22.7655 9.18226 22.9163 9.18227 22.9163 9.18227L23.2178 9.00902C23.2178 9.00902 23.2178 9.00901 23.3686 8.83577C23.5193 8.83577 23.6701 8.66254 23.8208 8.66254C23.9716 8.48929 24.2731 8.4893 24.5747 8.31606C24.7254 8.31606 24.8762 8.1428 25.027 8.1428C25.1777 8.1428 25.3285 7.96955 25.4792 7.96955C25.7808 7.79631 26.0823 7.79631 26.3838 7.62307C26.6854 7.44982 26.8361 7.44984 27.1376 7.44984C27.5899 7.2766 27.8915 7.27659 27.8915 7.27659C27.8915 7.27659 27.8915 7.27659 28.0422 7.27659H28.193C28.193 7.27659 28.4945 7.27658 28.9468 7.10333C29.3991 6.93009 30.0022 6.93009 30.6052 6.75685C30.9067 6.75685 31.2083 6.58362 31.5098 6.58362C31.8113 6.58362 32.1128 6.58361 32.2636 6.41037H32.4144L32.2636 5.71741C32.1128 5.89065 32.1129 5.89063 32.1129 5.89063Z" fill="#F5EFDB"/>
<path d="M31.208 6.23667C31.208 6.23667 31.9618 4.67749 34.0725 4.67749C36.1832 4.67749 37.5401 5.37046 37.9924 5.37046C38.4447 5.37046 36.0325 5.54371 34.8263 6.40993C33.9218 7.1029 31.3588 7.44938 31.208 6.23667Z" fill="#F5EFDB"/>
<path d="M58.3458 72.4161C57.7428 71.5499 58.0443 71.5499 57.1397 70.3372C57.1397 70.3372 57.1397 70.3372 57.2905 70.3372H57.4413C57.592 70.5104 57.7428 70.6836 57.8936 71.0301C58.0443 71.2034 58.3458 71.3766 58.6474 71.3766C58.7981 71.3766 59.0997 71.3766 59.2504 71.2034C59.552 71.0301 59.7027 71.0302 60.0042 70.8569L60.9088 72.4161C60.0042 72.7626 58.9489 73.4556 58.3458 72.4161Z" fill="#F5EFDB"/>
<path d="M56.9885 68.9511C57.1393 69.2976 57.1393 69.4708 57.1393 69.6441C57.1393 69.6441 57.1393 69.6441 56.9885 69.6441H56.8377C56.687 68.4314 56.3855 68.4313 56.2347 67.5651C55.9332 66.3524 56.8377 65.8327 57.29 65.313L58.1946 66.8722C57.8931 67.0454 57.7423 67.2187 57.5916 67.3919C57.4408 67.5652 57.29 67.7384 57.1393 67.9116C56.9885 68.4314 56.9885 68.7779 56.9885 68.9511Z" fill="#F5EFDB"/>
<path d="M55.1799 73.4556C55.9337 73.1092 56.6875 73.4556 57.2906 73.9754C57.8937 74.6683 58.1952 75.5346 58.0444 76.7473C58.0444 76.7473 57.8937 76.4008 57.5921 75.881C57.2906 75.5346 56.9891 75.0148 56.386 75.0148C55.4814 75.0148 53.6723 76.0543 53.0692 74.6683C52.6169 73.8021 52.9185 73.6289 52.1646 72.4162L52.4662 72.2429C52.6169 72.4162 52.7677 72.5894 52.9185 72.9359C53.0692 73.2824 53.22 73.2824 53.6723 73.4556C53.9738 73.8021 54.5769 73.6289 55.1799 73.4556Z" fill="#F5EFDB"/>
<path d="M51.8629 69.8174C51.8629 69.1244 52.1644 68.6047 52.6167 68.2582C52.7675 68.085 53.069 67.9117 53.2198 67.7385C53.3705 67.5652 53.672 67.392 53.672 67.2187C53.9736 66.8723 53.9736 66.3525 53.8228 65.8328C53.672 65.313 53.5213 64.9666 53.5213 64.9666C54.2751 65.6595 54.5766 66.5258 54.7274 67.392C54.7274 68.2582 54.4259 69.1244 53.8228 69.2976C53.2198 69.4709 52.9182 69.8174 52.6167 69.9906C52.3152 70.3371 52.3152 70.5104 52.3152 70.8569C52.3152 71.2033 52.3152 71.3766 52.3152 71.5498L52.0136 71.7231C52.1644 70.6836 51.8629 70.6836 51.8629 69.8174Z" fill="#F5EFDB"/>
<path d="M49.903 75.1886C50.3553 75.0154 50.6568 75.1886 51.1091 75.3618C51.4107 75.5351 51.7122 75.8816 52.0137 76.228C52.466 76.921 52.6168 77.9605 52.3152 78.9999C52.3152 78.9999 52.3152 78.6535 52.0137 78.1337C51.863 77.614 51.5614 77.2675 50.9584 77.0943C50.6568 77.0943 50.5061 77.0943 50.2046 77.0943C49.903 77.0943 49.6015 77.0943 49.3 77.0943C48.6969 77.0943 48.0939 76.9211 47.9431 76.0548C47.6416 75.0154 47.9431 75.0153 47.4908 73.6294H47.7923C47.7923 73.8026 47.9431 73.9759 48.0939 74.4956C48.0939 74.8421 48.3954 75.0154 48.6969 75.1886C48.6969 75.1886 49.3 75.1886 49.903 75.1886Z" fill="#F5EFDB"/>
<path d="M47.1895 70.8579C47.1895 70.1649 47.6418 69.8184 48.0941 69.4719C48.3956 69.2986 48.5464 69.2987 48.8479 69.1254C49.1495 68.9522 49.3002 68.9521 49.451 68.7789C49.7525 68.4324 49.7525 67.9127 49.7525 67.393C49.7525 66.8732 49.6018 66.5267 49.6018 66.5267C50.2048 67.393 50.5063 68.4324 50.3556 69.2986C50.3556 69.6451 50.2048 70.1649 50.054 70.5114C49.9033 70.8578 49.6018 71.0311 49.1495 71.2043C48.5464 71.3776 48.2449 71.5508 47.9434 71.7241C47.6418 71.8973 47.4911 72.2438 47.4911 72.4171C47.4911 72.7636 47.4911 72.9368 47.4911 73.11C47.4911 73.11 47.4911 73.11 47.3403 73.11H47.1895C47.3403 71.8973 47.1895 71.7241 47.1895 70.8579Z" fill="#F5EFDB"/>
<path d="M73.271 54.398C72.3665 54.2247 72.5172 53.8782 71.3111 53.705L71.4619 53.3585C71.6126 53.3585 71.9142 53.3585 72.2157 53.5318C72.5172 53.5318 72.668 53.5318 72.9695 53.1853C73.271 52.8388 73.4218 52.3191 73.7233 51.6261L75.231 52.3191C75.0802 52.8388 74.7787 53.3585 74.4772 53.705C74.1756 54.2247 73.7233 54.398 73.271 54.398Z" fill="#F5EFDB"/>
<path d="M70.4062 52.6657C70.7077 52.8389 70.8585 53.0121 70.8585 53.0121L70.7077 53.3587C69.8031 52.4924 69.6524 52.8389 69.0493 52.1459C68.597 51.7994 68.4463 51.453 68.4463 50.9332C68.4463 50.4135 68.597 50.067 68.597 49.5472L70.1046 50.2402C69.9539 50.9332 69.8031 51.2797 69.8031 51.7995C69.9539 52.1459 70.1047 52.4924 70.4062 52.6657Z" fill="#F5EFDB"/>
<path d="M71.311 57.3437C71.7633 56.4774 72.5171 56.131 73.2709 56.131C74.0247 56.131 74.9293 56.6507 75.3816 57.6902C75.3816 57.6902 75.0801 57.5169 74.6278 57.3437C74.1755 57.1704 73.7232 57.1704 73.2709 57.5169C73.1202 57.6902 72.9694 57.8634 72.6679 58.2099C72.5171 58.5564 72.3663 58.7296 72.0648 59.0761C71.6125 59.5959 71.1602 59.9423 70.5572 59.7691C69.8034 59.4226 69.8034 59.0762 68.5973 58.7297L68.748 58.3832C68.8988 58.3832 69.2003 58.5564 69.5018 58.7297C69.8034 58.9029 69.9541 58.7297 70.2557 58.5564C70.7079 58.5564 71.0095 58.0367 71.311 57.3437Z" fill="#F5EFDB"/>
<path d="M66.7881 56.998C66.3358 56.4783 66.3358 55.9586 66.4866 55.2656C66.6373 54.9191 66.6374 54.7458 66.7881 54.3993C66.9389 54.0529 66.9389 53.8796 66.9389 53.7063C66.9389 53.1866 66.6373 52.8401 66.1851 52.4936C65.8835 52.1472 65.4312 51.9739 65.4312 51.9739C66.3358 51.9739 67.2404 52.3204 67.6927 53.0134C68.2957 53.7063 68.4465 54.3993 68.145 55.2656C67.8435 55.7853 67.6927 56.305 67.6927 56.6515C67.6927 56.998 67.6927 57.3445 67.9942 57.5177C68.145 57.691 68.2957 57.8642 68.4465 58.0374L68.2958 58.384C67.5419 57.5177 67.3912 57.691 66.7881 56.998Z" fill="#F5EFDB"/>
<path d="M68.2958 62.5405C68.8988 61.8475 69.6526 61.501 70.4065 61.8475C70.8587 62.0207 71.1603 62.194 71.4618 62.5405C71.7633 62.8869 72.0648 63.2335 72.2156 63.9264C72.2156 63.9264 71.9141 63.5799 71.4618 63.4067C71.0095 63.2334 70.5572 63.0602 70.1049 63.4067C69.6526 63.7532 69.2003 64.2729 68.748 64.7927C68.2957 65.3124 67.6927 65.4856 67.0896 65.1391C66.3358 64.6194 66.4866 64.4462 65.4312 63.7532L65.582 63.5799C65.7328 63.5799 65.8835 63.7532 66.3358 64.0997C66.7881 63.9264 67.3912 63.7532 68.2958 62.5405Z" fill="#F5EFDB"/>
<path d="M63.7727 61.329C63.3204 60.6361 63.4712 60.1163 63.7727 59.5966C63.9235 59.0769 64.3758 58.5571 64.3758 58.2106C64.3758 57.6909 64.225 57.1712 63.9235 56.8247C63.6219 56.4782 63.3204 56.3049 63.3204 56.3049C63.7727 56.4782 64.225 56.6515 64.5265 56.8247C64.828 56.9979 65.1296 57.3444 65.4311 57.6909C65.5819 58.0374 65.7326 58.3839 65.7326 58.9036C65.7326 59.2501 65.7326 59.7698 65.4311 59.9431C65.1296 60.4628 64.828 60.9826 64.828 61.329C64.6773 61.6755 64.828 62.022 64.9788 62.1953C65.1296 62.3685 65.2803 62.715 65.2803 62.715L65.1296 62.8882C64.5265 61.8488 64.3758 62.022 63.7727 61.329Z" fill="#F5EFDB"/>
<path d="M64.5266 67.0445C64.8281 66.698 65.1296 66.5248 65.5819 66.5248C65.8835 66.5248 66.3358 66.5247 66.6373 66.698C67.3911 67.0445 67.9942 67.9107 68.1449 68.9501C68.1449 68.9501 67.8434 68.6036 67.5419 68.4304C67.2403 68.0839 66.6373 67.9107 66.185 68.0839C66.0342 68.0839 65.7327 68.2572 65.4312 68.6036C65.1296 68.7769 64.8281 68.9501 64.6774 69.1234C64.3758 69.2966 64.0743 69.4698 63.7728 69.4698C63.4712 69.4698 63.1697 69.4699 63.019 69.1234C62.4159 68.4304 62.5667 68.2572 61.5113 67.391L61.8128 67.2177C61.9636 67.391 62.1144 67.5642 62.4159 67.7374C62.7174 68.0839 63.4712 68.0839 64.5266 67.0445Z" fill="#F5EFDB"/>
<path d="M60.3051 64.9667C60.1544 64.6202 60.1544 64.2737 60.1544 64.1005C60.1544 63.754 60.3052 63.5808 60.4559 63.4075C60.6067 63.2343 60.7574 62.8878 60.9082 62.7145C61.059 62.5413 61.2097 62.3681 61.2097 62.0216C61.3605 61.5018 61.2097 60.9821 60.9082 60.6356C60.6067 60.2891 60.4559 59.9426 60.4559 59.9426C61.3605 60.2891 61.9636 60.9821 62.2651 61.8483C62.4159 62.1948 62.5666 62.7146 62.4159 63.0611C62.4159 63.4075 62.2651 63.754 61.9636 64.1005C61.059 64.9667 60.9082 65.6597 61.059 66.1794C61.2097 66.5259 61.2097 66.6991 61.3605 66.8724L61.059 67.0456C60.9082 65.6597 60.6067 65.8329 60.3051 64.9667Z" fill="#F5EFDB"/>
<path d="M63.3208 73.4554C63.3208 73.4554 63.17 73.1089 62.8685 72.7624C62.567 72.4159 62.1147 72.0694 61.6624 72.2427C61.5116 72.2427 61.2101 72.4159 60.9086 72.4159L60.004 70.8568C60.3055 70.6835 60.7578 70.5103 61.0593 70.5103C61.3609 70.5103 61.8132 70.6835 62.1147 70.8568C62.8685 71.3765 63.3208 72.2427 63.3208 73.4554Z" fill="#F5EFDB"/>
<path d="M57.2901 62.7144C58.0444 63.2341 58.6478 64.1003 58.7986 64.9665C58.9495 65.313 58.9495 65.8328 58.7986 66.1793C58.6478 66.5257 58.4969 66.8722 58.1952 67.0455L57.2901 65.4863C57.441 65.313 57.5918 65.1398 57.7427 64.9665C57.8935 64.62 57.8935 63.9271 57.5918 63.5806C57.441 63.0608 57.2901 62.7144 57.2901 62.7144Z" fill="#F5EFDB"/>
<path d="M61.5122 66.6998C61.5122 66.6998 61.5122 66.6998 61.6629 66.5266C61.8137 66.5266 61.9645 66.3533 62.1152 66.18C62.4168 65.8336 62.869 65.487 63.3213 64.9673C63.4721 64.7941 63.7736 64.4476 63.9244 64.2744C64.0752 64.1011 64.3767 63.7546 64.5275 63.5814C64.6782 63.4081 64.829 63.2349 64.9797 63.0617C65.1305 62.8884 65.1305 62.8884 65.1305 62.8884L65.2813 62.7152C65.2813 62.7152 65.432 62.5419 65.7336 62.0222C66.0351 61.6757 66.4874 61.156 66.7889 60.6362C66.9397 60.2897 67.0904 60.1165 67.392 59.77C67.5427 59.5968 67.5427 59.5968 67.6935 59.4235C67.6935 59.2503 67.8442 59.2503 67.8442 59.077C68.1458 58.7305 68.2965 58.3841 68.2965 58.3841L68.4473 58.0376C68.4473 58.0376 68.5981 57.6911 68.8996 57.3446C69.0504 57.1714 69.2011 56.8249 69.3519 56.6516C69.5026 56.3051 69.6534 56.1319 69.8042 55.7854C69.8042 55.6122 69.9549 55.4389 69.9549 55.2657C69.9549 55.0925 70.1057 54.9192 70.1057 54.7459C70.2565 54.3995 70.4072 54.2262 70.4072 53.8797C70.558 53.7065 70.558 53.5333 70.558 53.36C70.558 53.1868 70.7088 53.1868 70.7088 53.1868L70.8595 52.8402C70.8595 52.8402 70.8595 52.667 71.0103 52.4938C71.161 52.3205 71.1611 51.9741 71.3118 51.8008C71.4626 51.4543 71.4626 51.2811 71.6133 51.1078C71.6133 50.9346 71.7641 50.7614 71.7641 50.7614L72.2164 50.9346C72.2164 50.9346 72.2164 51.1078 72.0656 51.2811C72.0656 51.4543 71.9149 51.8008 71.7641 52.1473C71.6133 52.4938 71.6133 52.667 71.4626 52.8402C71.3118 53.0135 71.3118 53.1868 71.3118 53.1868L71.1611 53.5333C71.1611 53.5333 71.161 53.5332 71.0103 53.7065C71.0103 53.8797 70.8595 54.053 70.7088 54.2262C70.558 54.3995 70.558 54.746 70.4072 55.0924C70.4072 55.2657 70.2565 55.4389 70.2565 55.6122C70.2565 55.7854 70.1057 55.9587 70.1057 56.1319C69.9549 56.4784 69.8042 56.8249 69.6534 56.9981C69.5027 57.3446 69.3519 57.5179 69.2011 57.6911C69.0504 57.8644 69.0504 58.0376 68.8996 58.2108C68.8996 58.3841 68.7488 58.3841 68.7488 58.3841L68.5981 58.7306C68.5981 58.7306 68.4473 59.0771 68.1458 59.4235C67.995 59.5968 67.8443 59.9433 67.6935 60.1165C67.5427 60.463 67.392 60.6362 67.0904 60.9827C66.6381 61.5025 66.3366 62.0222 66.0351 62.5419C65.7336 62.8884 65.5828 63.2349 65.5828 63.2349L65.432 63.4081C65.432 63.4081 65.432 63.4081 65.2813 63.5814C65.1305 63.7546 64.9797 63.9279 64.829 64.1011C64.6782 64.2743 64.5274 64.4476 64.2259 64.7941C64.0752 64.9674 63.7736 65.3138 63.6229 65.4871C63.1706 66.0068 62.7183 66.3533 62.266 66.6998C62.1152 66.873 61.9645 67.0463 61.8137 67.0463C61.6629 67.2195 61.6629 67.2195 61.6629 67.2195L61.3614 67.3928C61.3614 67.3928 61.2106 67.566 61.0599 67.7392C60.9091 67.9125 60.6076 68.0857 60.3061 68.4322C59.703 68.9519 59.1 69.2984 59.1 69.2984L58.7984 68.7787C58.7984 68.7787 59.4015 68.4322 60.0045 67.9125C60.3061 67.7392 60.6076 67.566 60.7584 67.2195C60.9091 67.0463 61.0599 66.873 61.0599 66.873L61.5122 66.6998Z" fill="#F5EFDB"/>
<path d="M74.4771 29.4518C73.7233 29.9716 73.5725 29.625 72.5172 30.4913L72.3664 30.1448C72.5172 29.9715 72.668 29.7983 72.9695 29.625C73.1203 29.4518 73.271 29.2786 73.4218 28.7588C73.4218 28.4123 73.4218 27.7193 73.1203 27.0263L74.6279 26.3334C74.7787 26.8531 74.9294 27.3729 74.9294 28.0658C75.231 28.5856 74.9294 29.1053 74.4771 29.4518Z" fill="#F5EFDB"/>
<path d="M71.3119 30.3183C71.6134 30.3183 71.7642 30.3183 71.9149 30.3183L72.0657 30.6648C71.0103 30.6648 71.0103 31.0113 70.1058 31.0113C69.6535 31.0113 69.2012 30.838 69.0504 30.4915C68.7489 30.145 68.5981 29.7985 68.4474 29.2788L69.955 28.5858C70.1058 29.2788 70.4073 29.6253 70.5581 29.9718C70.8596 30.145 71.1611 30.3183 71.3119 30.3183Z" fill="#F5EFDB"/>
<path d="M74.7788 33.0905C74.6281 32.5707 74.7788 32.2243 74.9296 31.7045C75.0804 31.358 75.3819 31.0115 75.6834 30.6651C76.2865 30.1453 77.1911 29.9721 78.0956 30.3186C78.0956 30.3186 77.7941 30.3186 77.3418 30.6651C76.8895 30.8383 76.588 31.1848 76.4372 31.8778C76.4372 32.2242 76.4372 32.3975 76.4372 32.744C76.4372 33.0905 76.4372 33.437 76.4372 33.7834C76.4372 34.4764 76.2865 35.1694 75.5326 35.3426C74.6281 35.6891 74.6281 35.3426 73.422 35.8624V35.5159C73.5727 35.5159 73.7235 35.3426 74.1758 35.1694C74.4773 35.1694 74.6281 34.8229 74.6281 34.4764C74.9296 34.4764 74.9296 33.7834 74.7788 33.0905Z" fill="#F5EFDB"/>
<path d="M71.1608 36.2088C70.5577 36.2088 70.2562 35.6891 69.9547 35.1693C69.8039 34.8228 69.8039 34.6496 69.6531 34.3031C69.5024 33.9566 69.5024 33.7833 69.3516 33.6101C69.0501 33.2636 68.5978 33.2636 68.1455 33.2636C67.6932 33.2636 67.3917 33.4369 67.3917 33.4369C68.1455 32.7439 69.0501 32.3974 69.8039 32.5706C70.2562 32.5706 70.5577 32.7439 70.8593 32.9171C71.1608 33.0904 71.3115 33.4368 71.4623 33.9566C71.6131 34.6496 71.7638 34.9961 71.9146 35.3426C72.0654 35.6891 72.3669 35.8623 72.5177 35.8623C72.8192 35.8623 72.9699 35.8623 73.1207 35.8623C73.1207 35.8623 73.1207 35.8623 73.1207 36.0356V36.2088C71.9146 36.0355 71.9146 36.382 71.1608 36.2088Z" fill="#F5EFDB"/>
<path d="M75.3816 39.3272C75.3816 38.4609 75.8339 37.5947 76.5877 37.2483C77.3416 36.9018 78.2461 36.7285 79 37.4215C79 37.4215 78.6984 37.4215 78.2461 37.5947C77.7938 37.768 77.3416 37.9412 77.1908 38.6342C77.04 38.8074 77.04 39.1539 77.04 39.5004C77.04 39.8469 76.8893 40.1934 76.8893 40.5398C76.7385 41.2328 76.437 41.9258 75.8339 41.9258C74.9293 42.099 74.9293 41.7526 73.7232 42.099V41.7525C73.874 41.7525 74.1755 41.5793 74.477 41.5793C74.7786 41.5793 74.9293 41.4061 75.0801 40.8863C75.2309 40.7131 75.3816 40.1934 75.3816 39.3272Z" fill="#F5EFDB"/>
<path d="M71.1613 41.7516C70.5582 41.5784 70.2567 41.0586 70.1059 40.5389C70.1059 40.1924 69.9551 40.0192 69.9551 39.6727C69.9551 39.3262 69.8044 39.153 69.8044 38.9797C69.6536 38.6332 69.0506 38.46 68.749 38.2867C68.2967 38.2867 67.9952 38.2867 67.9952 38.2867C68.749 37.767 69.6536 37.5938 70.4074 37.767C71.1613 37.9402 71.6135 38.6332 71.7643 39.4994C71.7643 40.1924 71.9151 40.7122 72.0658 41.0586C72.2166 41.4051 72.3674 41.5784 72.6689 41.7516C72.9704 41.7516 73.1212 41.9249 73.272 41.9249V42.2714C72.0658 41.5784 72.0659 41.9249 71.1613 41.7516Z" fill="#F5EFDB"/>
<path d="M74.9296 45.5626C74.9296 45.0429 75.2311 44.6964 75.3819 44.3499C75.6834 44.0034 75.985 43.8302 76.2865 43.6569C77.0403 43.4837 77.9449 43.4837 78.6987 44.3499C78.6987 44.3499 78.3972 44.3499 77.9449 44.3499C77.4926 44.3499 77.0403 44.5232 76.7388 45.0429C76.4373 45.5626 76.4373 46.2556 76.1357 46.9486C75.8342 47.6415 75.5327 48.1613 74.9296 48.1613C74.025 48.1613 74.025 47.8148 72.8189 47.988C72.8189 47.988 72.8189 47.988 72.8189 47.8148V47.6416C72.9697 47.6416 73.2712 47.6416 73.5728 47.6416C73.8743 47.6416 74.025 47.4683 74.3266 47.1218C74.4773 46.9486 74.4773 46.7753 74.6281 46.4289C74.7789 46.2556 74.9296 45.9091 74.9296 45.5626Z" fill="#F5EFDB"/>
<path d="M70.5581 47.1222C69.955 46.7757 69.8043 46.256 69.8043 45.7362C69.8043 45.2165 69.8043 44.5235 69.6535 44.177C69.5027 43.6573 69.0504 43.4841 68.5981 43.3108C68.1459 43.1376 67.8443 43.1376 67.8443 43.1376C68.7489 42.7911 69.6535 42.7911 70.2565 43.1376C70.5581 43.3108 70.8596 43.6573 71.0104 43.8305C71.1611 44.177 71.3119 44.5235 71.1611 45.0433C71.1611 45.3897 71.1611 45.7362 71.1611 45.9095C71.1611 46.0827 71.1611 46.4292 71.1611 46.6024C71.3119 46.9489 71.4627 47.2954 71.6134 47.2954C71.9149 47.4687 72.0657 47.4687 72.2165 47.6419C72.2165 47.6419 72.2165 47.6419 72.2165 47.8152V47.9884C71.4627 47.2954 71.3119 47.4687 70.5581 47.1222Z" fill="#F5EFDB"/>
<path d="M77.6431 51.2806C77.6431 51.2806 77.3416 51.1073 76.8893 51.1073C76.437 51.1073 75.9847 51.1073 75.5324 51.6271C75.3816 51.8003 75.2309 51.9736 75.2309 52.32L73.7232 51.6271C73.874 51.1073 74.0248 50.7608 74.3263 50.5876C74.4771 50.4143 74.6278 50.4143 74.7786 50.2411C74.9293 50.2411 75.0801 50.0679 75.3816 50.0679C76.1354 50.0679 77.04 50.4143 77.6431 51.2806Z" fill="#F5EFDB"/>
<path d="M67.0899 47.6439C67.9945 47.4707 68.8991 47.644 69.5021 48.1637C69.6529 48.3369 69.8037 48.5102 69.9544 48.5102C70.1052 48.6834 70.1052 48.8567 70.256 49.0299C70.4067 49.3764 70.4067 49.7228 70.256 50.2426L68.7483 49.5496C68.7483 49.3764 68.7483 49.0299 68.7483 48.8566C68.5976 48.3369 68.296 47.9904 67.8438 47.8172C67.3915 47.8172 67.0899 47.6439 67.0899 47.6439Z" fill="#F5EFDB"/>
<path d="M72.5176 47.4687C72.5176 47.4687 72.5176 47.1222 72.6684 46.6025C72.8191 46.0827 72.8191 45.3898 72.9699 44.6968C72.9699 44.3503 73.1207 44.0038 73.1207 43.6573C73.1207 43.3108 73.1207 42.9643 73.2714 42.7911C73.2714 42.6179 73.2714 42.2714 73.2714 42.0981C73.2714 41.9249 73.2714 41.9249 73.2714 41.9249V41.5784C73.2714 41.5784 73.2714 41.5784 73.2714 41.4051C73.2714 41.2319 73.2714 41.0587 73.2714 40.7122C73.2714 40.5389 73.2714 40.1924 73.2714 39.846C73.2714 39.4995 73.2714 39.153 73.2714 38.8065C73.2714 38.1135 73.2714 37.4205 73.1207 36.9008C73.1207 36.3811 73.1207 36.0346 73.1207 36.0346C73.1207 36.0346 73.1207 36.0346 73.1207 35.8613V35.6881C73.1207 35.6881 73.1207 35.3416 72.9699 34.8219C72.9699 34.6486 72.9699 34.3021 72.8191 33.9556C72.8191 33.6092 72.6684 33.2627 72.6684 32.9162C72.6684 32.7429 72.6684 32.5697 72.5176 32.3965C72.5176 32.2232 72.5176 32.05 72.3668 31.8767C72.3668 31.5302 72.2161 31.1837 72.2161 31.0105C72.2161 30.8373 72.0653 30.4908 72.0653 30.4908C72.0653 30.3175 72.0653 30.3175 72.0653 30.3175L71.9146 29.971C71.9146 29.971 71.9145 29.7978 71.7638 29.6245C71.7638 29.4513 71.7638 29.4513 71.613 29.2781C71.613 29.1048 71.4623 28.9316 71.4623 28.9316C71.3115 28.4118 71.1607 27.8921 71.1607 27.8921L71.613 27.7189C71.613 27.7189 71.7638 28.2386 71.9146 28.9316C72.0653 29.2781 72.0653 29.4513 72.0653 29.7978C72.0653 29.971 72.2161 30.1443 72.2161 30.1443L72.3668 30.4908C72.3668 30.4908 72.3668 30.4908 72.3668 30.664C72.3668 30.8373 72.5176 31.0105 72.5176 31.357C72.5176 31.5302 72.6684 31.8767 72.6684 32.2232C72.6684 32.3964 72.6684 32.5697 72.8191 32.7429C72.8191 32.9162 72.8191 33.0894 72.9699 33.2627C72.9699 33.6092 73.1207 33.9557 73.1207 34.3022C73.1207 34.6486 73.2714 34.9951 73.2714 35.1684C73.2714 35.6881 73.4222 36.0346 73.4222 36.0346V36.3811C73.4222 36.3811 73.4222 36.7276 73.4222 37.2473C73.4222 37.767 73.4222 38.46 73.573 39.153C73.573 39.4994 73.573 39.8459 73.573 40.1924C73.573 40.5389 73.573 40.8854 73.573 41.0587C73.573 41.4051 73.573 41.5784 73.573 41.7516C73.573 41.9249 73.573 41.9249 73.573 41.9249V42.2714V42.4446C73.573 42.6179 73.573 42.7911 73.573 43.1376C73.573 43.3108 73.573 43.6573 73.4222 44.0038C73.4222 44.3503 73.4222 44.6968 73.2714 45.0433C73.1207 45.7363 73.1207 46.4292 72.9699 46.9489C72.8191 47.4687 72.8191 47.8152 72.8191 47.8152C72.8191 47.8152 72.8191 47.8152 72.8191 47.9884V48.1617C72.8191 48.1617 72.6684 48.8546 72.5176 49.7209C72.3668 50.4138 72.0653 51.28 72.0653 51.28L71.613 51.1068C71.613 51.1068 71.7638 50.4138 72.0653 49.5476C72.2161 48.8546 72.3668 47.9884 72.3668 47.9884C72.3668 47.9884 72.3668 47.8152 72.5176 47.4687C72.5176 47.4687 72.3668 47.6419 72.5176 47.4687Z" fill="#F5EFDB"/>
<path d="M61.6631 9.35533C61.3615 10.2215 61.06 10.2216 60.7585 11.6075L60.457 11.4342C60.457 11.261 60.6077 10.9145 60.7585 10.568C60.9092 10.2215 60.7585 10.0483 60.6077 9.70181C60.457 9.35533 60.0047 9.00885 59.4016 8.66237L60.1554 6.92993C60.3062 7.10318 60.6077 7.27642 60.7585 7.44967C60.9092 7.62291 61.06 7.79613 61.2108 7.96938C61.6631 8.31586 61.8138 8.8356 61.6631 9.35533Z" fill="#F5EFDB"/>
<path d="M59.703 12.3012C59.8537 12.128 60.0045 11.9547 60.1553 11.7815L60.4568 11.9547C59.703 12.8209 59.8537 12.9942 59.2507 13.6872C58.9492 14.0336 58.4969 14.2069 58.0446 14.0336C57.8938 14.0336 57.5923 13.8604 57.4415 13.8604C57.2908 13.8604 57.14 13.6872 56.8385 13.6872L57.5923 11.9547C58.0446 12.3012 58.4969 12.4745 58.7984 12.4745C59.2507 12.6477 59.5522 12.4744 59.703 12.3012Z" fill="#F5EFDB"/>
<path d="M63.9246 11.9535C63.3215 11.2606 63.02 10.3944 63.3215 9.52814C63.4723 9.00841 63.623 8.66193 63.9246 8.31544C64.2261 7.96895 64.5276 7.62246 65.1307 7.44922C65.1307 7.44922 64.8291 7.79571 64.6784 8.31544C64.5276 8.83517 64.3769 9.35489 64.6784 9.87462C64.9799 10.3944 65.4322 10.9141 65.8845 11.4338C66.3368 11.9535 66.4875 12.6465 66.186 13.3395C65.7337 14.2057 65.583 14.0325 64.9799 15.2452L64.8291 15.0719C64.8291 14.8987 64.9799 14.7255 65.2814 14.379C65.1307 13.686 64.9799 12.993 63.9246 11.9535Z" fill="#F5EFDB"/>
<path d="M62.7189 17.1498C62.1159 17.6695 61.6636 17.4963 61.2113 17.1498C60.759 16.9765 60.3067 16.4568 60.0052 16.4568C59.5529 16.4568 59.2513 16.6301 58.7991 16.9765C58.4975 17.323 58.3468 17.6695 58.3468 17.6695C58.4975 17.1498 58.6483 16.63 58.7991 16.2836C58.9498 15.9371 59.2513 15.5906 59.5529 15.2441C59.8544 15.0708 60.1559 14.8976 60.6082 14.8976C60.9098 14.8976 61.362 14.8976 61.5128 15.2441C61.9651 15.5906 62.4174 15.9371 62.7189 15.9371C63.0204 16.1103 63.322 15.9371 63.4727 15.7638C63.6235 15.5906 63.925 15.4173 63.925 15.4173L64.0758 15.5906C63.322 16.2836 63.4727 16.4568 62.7189 17.1498Z" fill="#F5EFDB"/>
<path d="M67.844 16.2847C67.5424 15.9382 67.3917 15.5917 67.3917 15.072C67.3917 14.7255 67.3917 14.2058 67.5425 13.8593C67.844 12.9931 68.5978 12.3001 69.5024 12.1268C69.5024 12.1268 69.2008 12.4733 69.0501 12.8198C68.7486 13.1663 68.5978 13.8593 68.7486 14.379C68.7486 14.5523 68.8993 14.8987 69.2008 15.2452C69.3516 15.5917 69.5024 15.9382 69.6531 16.1115C69.8039 16.4579 69.9547 16.8044 69.9547 17.1509C69.9547 17.4974 69.9547 17.8439 69.6531 18.0171C69.0501 18.7101 68.8993 18.5369 68.1455 19.7496L67.9947 19.4031C68.1455 19.2298 68.2963 19.0566 68.447 18.7101C68.7486 18.3636 68.5978 17.4974 67.844 16.2847Z" fill="#F5EFDB"/>
<path d="M65.8844 21.1356C65.5829 21.3088 65.2814 21.3088 65.1306 21.3088C64.8291 21.3088 64.6783 21.1356 64.5276 20.9623C64.3768 20.7891 64.0753 20.6158 63.9245 20.4426C63.7737 20.2694 63.623 20.0961 63.3215 20.0961C62.8692 19.9229 62.4169 20.0961 62.1154 20.4426C61.8138 20.7891 61.5123 20.9623 61.5123 20.9623C61.8138 19.9229 62.4169 19.2299 63.1707 18.8834C63.4722 18.7102 63.9245 18.5369 64.226 18.7102C64.5276 18.7102 64.8291 18.8834 65.1306 19.2299C65.8844 20.2693 66.4875 20.4426 66.9398 20.2694C67.2413 20.0961 67.3921 20.0961 67.5428 19.9229L67.6936 20.2694C66.6382 20.4426 66.6383 20.7891 65.8844 21.1356Z" fill="#F5EFDB"/>
<path d="M71.0106 21.4824C70.8598 21.1359 70.7091 20.6162 70.7091 20.2697C70.7091 19.9232 70.8598 19.4035 71.0106 19.057C71.4629 18.364 72.2167 17.6711 73.2721 17.8443C73.2721 17.8443 72.9705 18.0175 72.669 18.364C72.3675 18.7105 72.0659 19.2302 72.2167 19.75C72.2167 20.2697 72.669 20.9627 72.8198 21.6557C72.9705 22.3486 72.9705 23.0416 72.5182 23.5613C71.7644 24.2543 71.7644 23.9078 70.7091 24.9473C70.7091 24.9473 70.7091 24.9473 70.7091 24.7741V24.6008C70.8598 24.4276 71.0106 24.2543 71.3121 24.0811C71.4629 23.9078 71.6137 23.5613 71.6137 23.2149C71.6137 23.0416 71.6137 22.6951 71.4629 22.5219C71.3121 22.0022 71.1614 21.8289 71.0106 21.4824Z" fill="#F5EFDB"/>
<path d="M68.4471 25.8129C67.844 25.9861 67.3917 25.6396 67.0902 25.2931C66.7887 24.9466 66.4871 24.2537 66.1856 24.0804C65.8841 23.9072 65.281 23.9072 64.9795 24.2537C64.5272 24.4269 64.2257 24.7734 64.2257 24.7734C64.678 23.9072 65.4318 23.2142 66.1856 23.0409C66.4871 22.8677 66.9394 22.8677 67.2409 23.0409C67.5425 23.2142 67.844 23.3874 67.9948 23.7339C68.1455 24.0804 68.2963 24.2536 68.4471 24.4269C68.5978 24.6001 68.7486 24.7734 68.8994 24.9466C69.2009 25.1199 69.5024 25.2931 69.6532 25.1199C69.9547 24.9467 70.1055 24.9466 70.2562 24.9466C70.2562 24.9466 70.2562 24.9467 70.2562 25.1199V25.2931C69.2009 25.2931 69.2009 25.4664 68.4471 25.8129Z" fill="#F5EFDB"/>
<path d="M76.2868 23.908C76.2868 23.908 75.9852 24.0812 75.5329 24.4277C75.2314 24.7742 74.7791 25.1207 74.7791 25.8136C74.7791 25.9869 74.7791 26.3334 74.9299 26.6799L73.4222 27.3728C73.1207 26.5066 73.4222 25.6404 73.8745 24.9474C74.3268 24.0812 75.2314 23.5615 76.2868 23.908Z" fill="#F5EFDB"/>
<path d="M66.0352 28.932C66.6383 28.0658 67.3921 27.7193 68.1459 27.546C68.8998 27.546 69.6536 27.8925 69.8043 28.5855L68.2967 29.2785C68.1459 29.1052 67.9952 28.932 67.9952 28.7587C67.6936 28.4122 67.2414 28.4123 66.7891 28.5855C66.4875 28.7588 66.0352 28.932 66.0352 28.932Z" fill="#F5EFDB"/>
<path d="M70.1062 24.7741C70.1062 24.7741 69.9555 24.4276 69.8047 24.0811C69.6539 23.5614 69.3524 23.0416 69.0509 22.3487C68.7493 21.8289 68.4478 21.136 68.1463 20.7895C67.8448 20.443 67.694 20.0965 67.694 20.0965L67.5432 19.75C67.5432 19.75 67.5432 19.75 67.3925 19.5768C67.2417 19.4035 67.2417 19.2303 67.0909 19.057C66.7894 18.7105 66.4879 18.1908 66.0356 17.6711C65.8848 17.4978 65.5833 17.1513 65.4325 16.9781C65.2818 16.8049 64.9802 16.4584 64.8295 16.2851C64.6787 16.1119 64.528 15.9386 64.3772 15.7654C64.2264 15.5921 64.2264 15.5921 64.2264 15.5921L64.0757 15.4189C64.0757 15.4189 63.9249 15.2456 63.4726 14.8992C63.1711 14.5527 62.7188 14.0329 62.2665 13.6864C61.965 13.5132 61.8142 13.34 61.5127 12.9935C61.3619 12.8202 61.3619 12.8202 61.2112 12.647C61.0604 12.647 61.0604 12.4737 60.9096 12.4737C60.6081 12.1273 60.3066 11.954 60.3066 11.954L60.0051 11.7808C60.0051 11.7808 59.5528 11.4343 59.1005 11.0878C58.9497 11.0878 58.9497 10.9146 58.7989 10.9146C58.6482 10.9146 58.6482 10.7413 58.4974 10.7413C58.3467 10.5681 58.1959 10.5681 58.1959 10.5681L58.4974 10.0483C58.4974 10.0483 58.6482 10.0483 58.7989 10.2216C58.9497 10.2216 58.9497 10.3948 59.1005 10.3948C59.2512 10.3948 59.2512 10.5681 59.402 10.5681C59.5528 10.7413 59.8543 10.9145 60.0051 11.0878C60.1558 11.261 60.3066 11.261 60.3066 11.261L60.6081 11.4343C60.6081 11.4343 60.9096 11.6075 61.2112 11.954C61.3619 12.1273 61.6634 12.3005 61.8142 12.4737C62.1157 12.647 62.2665 12.8202 62.568 13.1667C63.0203 13.6864 63.4726 14.033 63.7741 14.3794C64.0757 14.7259 64.3772 14.8992 64.3772 14.8992L64.528 15.0724C64.528 15.0724 64.528 15.0724 64.6787 15.2457C64.8295 15.4189 64.9803 15.5921 65.131 15.7654C65.2818 15.9386 65.4325 16.1119 65.7341 16.4584C65.8848 16.6316 66.1864 16.9781 66.3371 17.1513C66.7894 17.6711 67.0909 18.1908 67.3925 18.7105C67.5432 18.8838 67.694 19.057 67.694 19.2303C67.8448 19.4035 67.8448 19.4035 67.8448 19.4035L67.9955 19.75C67.9955 19.75 68.1463 20.0965 68.4478 20.443C68.5986 20.6162 68.7493 20.9627 68.9001 21.1359C69.0509 21.4824 69.2016 21.6557 69.3524 22.0022C69.6539 22.5219 69.9554 23.2149 70.257 23.7346C70.4077 24.2543 70.5585 24.4276 70.5585 24.4276C70.5585 24.4276 70.5585 24.4276 70.5585 24.6008V24.7741C70.5585 24.7741 70.5585 24.9473 70.7093 25.2938C70.86 25.6403 71.0108 25.9868 71.1616 26.3333C71.3123 26.6798 71.4631 27.0263 71.4631 27.3727C71.4631 27.546 71.6138 27.546 71.6138 27.7192V27.8925L71.1616 28.0657C71.1616 28.0657 71.1616 28.0657 71.1616 27.8925C71.1616 27.8925 71.1616 27.7192 71.0108 27.546C70.86 27.1995 70.7093 26.853 70.7093 26.5065C70.5585 26.16 70.4077 25.8135 70.257 25.467C70.1062 25.1206 70.1062 24.9473 70.1062 24.9473C70.1062 24.9473 70.257 24.9473 70.1062 24.7741Z" fill="#F5EFDB"/>
<path d="M49.1491 4.3311C48.6968 4.15785 48.3953 3.9846 48.0938 3.81136C47.7922 3.46487 47.6415 3.11837 47.4907 2.77189C47.3399 1.90567 47.3399 0.866219 48.0938 0C48.0938 0 48.0938 0.346488 48.0938 0.866219C48.0938 1.38595 48.2445 1.90569 48.6968 2.25217C49.1491 2.59866 49.7522 2.59865 50.3552 2.94514C50.9583 3.29163 51.4106 3.63812 51.4106 4.3311C51.4106 5.37056 51.109 5.37055 51.2598 6.7565C51.2598 6.7565 51.2598 6.7565 51.109 6.7565H50.9583C50.9583 6.58325 50.9583 6.23677 50.9583 5.89028C50.9583 5.54379 50.8075 5.37055 50.506 5.02406C50.3552 4.85082 50.2045 4.85082 49.9029 4.67758C49.7522 4.50433 49.4506 4.3311 49.1491 4.3311Z" fill="#F5EFDB"/>
<path d="M50.3554 9.3549C50.0539 10.0479 49.6016 10.2211 49.1493 10.2211C48.697 10.2211 48.094 10.2211 47.7924 10.3944C47.3401 10.5676 47.1894 11.0873 47.0386 11.6071C46.8879 12.1268 46.8879 12.4733 46.8879 12.4733C46.5863 11.4338 46.5863 10.3944 46.8879 9.70138C47.0386 9.35489 47.3401 9.0084 47.4909 8.83516C47.7924 8.66191 48.094 8.48868 48.5463 8.66193C48.8478 8.66193 49.1493 8.66193 49.3001 8.66193C49.4508 8.66193 49.7524 8.66193 49.9031 8.66193C50.2047 8.48868 50.5062 8.31543 50.5062 8.14219C50.6569 7.7957 50.6569 7.62246 50.8077 7.44922C50.8077 7.44922 50.8077 7.44922 50.9585 7.44922H51.1092C50.5062 8.31544 50.8077 8.48867 50.3554 9.3549Z" fill="#F5EFDB"/>
<path d="M54.4257 5.88971C53.9734 5.71647 53.6719 5.54323 53.5211 5.19674C53.3704 5.0235 53.3704 4.85025 53.2196 4.67701C53.2196 4.50376 53.0688 4.33053 53.0688 3.98404C52.9181 3.11782 53.2196 2.07835 54.1242 1.38538C54.1242 1.38538 53.9734 1.73186 53.9734 2.2516C53.9734 2.77133 53.9734 3.29105 54.4257 3.81079C54.5765 3.98403 54.878 4.15728 55.1795 4.33052C55.4811 4.50377 55.7826 4.67702 56.0841 4.85026C56.6872 5.19675 56.9887 5.71648 56.8379 6.5827C56.6872 7.62217 56.3857 7.4489 56.2349 8.83486L55.9334 8.66163C55.9334 8.48839 55.9334 8.1419 56.0841 7.79541C56.0841 7.44892 56.0841 7.27568 55.7826 6.92919C55.4811 6.40945 55.0288 6.06296 54.4257 5.88971Z" fill="#F5EFDB"/>
<path d="M54.8783 11.0885C54.5768 11.7815 53.9737 11.7815 53.5215 11.7815C53.2199 11.7815 53.0692 11.6083 52.7676 11.6083C52.4661 11.6083 52.3153 11.6083 52.1646 11.6083C51.7123 11.7815 51.4108 12.128 51.26 12.6477C51.1092 13.1675 50.9585 13.514 50.9585 13.514C50.8077 12.4745 50.9585 11.435 51.4108 10.742C51.5615 10.5688 51.7123 10.3955 51.7123 10.2223C51.8631 10.0491 52.0138 10.0491 52.1646 9.87582C52.4661 9.70257 52.7676 9.70257 53.2199 9.87582C53.823 10.0491 54.1245 10.2223 54.5768 10.2223C54.8783 10.2223 55.1799 10.0491 55.3306 9.87582C55.4814 9.52933 55.6321 9.35608 55.6321 9.35608L55.9337 9.52933C55.1799 10.2223 55.3306 10.3955 54.8783 11.0885Z" fill="#F5EFDB"/>
<path d="M59.8534 3.81165C59.8534 3.81165 59.7027 4.15814 59.5519 4.67787C59.4011 5.19761 59.4011 5.71733 59.7027 6.23707C59.8534 6.41032 60.0042 6.58357 60.1549 6.75681L59.4011 8.48926C58.6473 7.96953 58.3458 7.1033 58.3458 6.23707C58.4966 5.37084 58.9488 4.33138 59.8534 3.81165Z" fill="#F5EFDB"/>
<path d="M54.8785 15.2469C54.8785 14.2075 55.18 13.168 55.7831 12.6483C56.3861 11.9553 56.9892 11.7821 57.743 12.1286L56.9892 13.861C56.8384 13.861 56.5369 13.6877 56.3861 13.6877C55.9339 13.6877 55.6323 14.0342 55.3308 14.554C55.0293 14.7272 54.8785 15.2469 54.8785 15.2469Z" fill="#F5EFDB"/>
<path d="M46.4354 73.109C46.8877 73.109 47.1892 73.109 47.1892 73.109C47.1892 73.109 47.1892 73.109 47.34 73.109H47.4907C47.4907 73.109 47.7923 73.109 48.2446 72.9358C48.3953 72.9358 48.6969 72.9358 48.9984 72.7625C49.2999 72.7625 49.6014 72.5893 49.903 72.5893C50.0537 72.5893 50.2045 72.5893 50.3553 72.4161C50.506 72.4161 50.6568 72.4161 50.8076 72.2428C51.1091 72.2428 51.4106 72.0696 51.5614 72.0696C51.7121 72.0696 52.0137 71.8963 52.0137 71.8963C52.1644 71.8963 52.1644 71.8963 52.1644 71.8963L52.466 71.7231C52.466 71.7231 52.466 71.7231 52.6167 71.7231C52.7675 71.7231 52.9182 71.5499 53.069 71.5499C53.2198 71.5499 53.5213 71.3766 53.8228 71.2033C54.1244 71.0301 54.4259 71.0301 54.5766 70.8569C55.1797 70.5104 55.632 70.3371 56.0843 70.1639C56.5366 69.9906 56.8381 69.8174 56.8381 69.8174C56.8381 69.8174 56.8381 69.8174 56.9889 69.8174H57.1396C57.1396 69.8174 57.5919 69.4709 58.0442 69.2977C58.3457 69.1244 58.4965 68.9512 58.6473 68.9512C58.798 68.778 58.9488 68.778 58.9488 68.778L59.2503 69.2977C59.2503 69.2977 59.0996 69.2977 58.9488 69.4709C58.798 69.6442 58.4965 69.8174 58.3457 69.8174C57.8934 70.1639 57.4412 70.3371 57.4412 70.3371C57.4412 70.3371 57.4412 70.3371 57.2904 70.3371H57.1396C57.1396 70.3371 56.8381 70.5104 56.3858 70.6836C55.9335 70.8569 55.3305 71.2034 54.8782 71.3766C54.5766 71.5498 54.2751 71.5499 53.9736 71.7231C53.6721 71.8964 53.5213 71.8963 53.2198 72.0696C52.7675 72.2428 52.466 72.2428 52.466 72.2428L52.1644 72.4161C52.1644 72.4161 52.1644 72.4161 52.0137 72.4161C51.8629 72.4161 51.7121 72.5893 51.4106 72.5893C51.2598 72.5893 50.9583 72.7625 50.6568 72.7625C50.506 72.7625 50.3553 72.7625 50.2045 72.9358C50.0537 72.9358 49.903 72.9358 49.7522 73.109C49.4507 73.109 49.1492 73.2823 48.8476 73.2823C48.5461 73.2823 48.2446 73.4555 48.0938 73.4555C47.6415 73.4555 47.34 73.6287 47.34 73.6287H47.0385C47.0385 73.6287 46.7369 73.6287 46.2846 73.6287H46.1339V72.9358C46.2846 73.109 46.4354 73.109 46.4354 73.109Z" fill="#F5EFDB"/>
<path d="M46.888 5.89063C47.1896 5.89063 47.3403 5.89065 47.6419 6.06389C47.9434 6.06389 48.2449 6.06387 48.5464 6.23712C49.1495 6.41036 49.7526 6.41038 50.2048 6.58362C50.6571 6.75687 50.9587 6.75685 50.9587 6.75685C50.9587 6.75685 50.9587 6.75685 51.1094 6.75685H51.2602C51.2602 6.75685 51.5617 6.93011 52.014 6.93011C52.1648 6.93011 52.4663 7.10333 52.7678 7.10333C53.0694 7.27658 53.3709 7.2766 53.6724 7.44984C53.9739 7.62308 54.2755 7.62308 54.577 7.79632C54.8785 7.96956 55.0293 7.96956 55.3308 8.1428C55.4816 8.31605 55.7831 8.31606 55.7831 8.31606C55.9339 8.31606 55.9339 8.48928 55.9339 8.48928L56.2354 8.66254C56.2354 8.66254 56.3862 8.66252 56.6877 8.83577C56.9892 9.00901 57.2907 9.18226 57.5923 9.3555C57.8938 9.52874 58.1953 9.70199 58.4969 9.87524C58.7984 10.0485 58.9491 10.0485 58.9491 10.0485L58.6476 10.5682C58.6476 10.5682 58.4968 10.395 58.3461 10.395C58.1953 10.2217 57.743 10.0485 57.4415 9.87524C57.14 9.70199 56.8384 9.52874 56.5369 9.3555C56.2354 9.18226 56.0846 9.18227 56.0846 9.18227L55.7831 9.00902C55.7831 9.00902 55.7831 9.00901 55.6323 8.83577C55.4816 8.83577 55.3308 8.66254 55.18 8.66254C55.0293 8.48929 54.7278 8.4893 54.4262 8.31606C54.2755 8.31606 54.1247 8.1428 53.9739 8.1428C53.8232 8.1428 53.6724 7.96955 53.5216 7.96955C53.2201 7.79631 52.9186 7.79631 52.6171 7.62307C52.3155 7.44982 52.1648 7.44984 51.8632 7.44984C51.411 7.2766 51.1094 7.27659 51.1094 7.27659C51.1094 7.27659 51.1094 7.27659 50.9587 7.27659H50.8079C50.8079 7.27659 50.5064 7.27658 50.0541 7.10333C49.6018 6.93009 48.9987 6.93009 48.3957 6.75685C48.0942 6.75685 47.7926 6.58362 47.4911 6.58362C47.1896 6.58362 46.888 6.58361 46.7373 6.41037H46.5865L46.7373 5.71741C46.7373 5.89065 46.888 5.89063 46.888 5.89063Z" fill="#F5EFDB"/>
<path d="M47.7924 6.23667C47.7924 6.23667 47.0385 4.67749 44.9278 4.67749C42.8172 4.67749 41.4603 5.37046 41.008 5.37046C40.5557 5.37046 42.9679 5.54371 44.174 6.40993C45.0786 7.1029 47.6416 7.44938 47.7924 6.23667Z" fill="#F5EFDB"/>
<path d="M39.3495 73.8013C36.1835 73.8013 33.4697 73.2815 30.3037 72.9351V73.4548C33.1682 73.9745 36.1835 74.321 39.3495 74.321C42.3648 74.321 45.2293 73.9745 48.0938 73.4548L46.2847 73.1083C43.4201 73.8013 42.3648 73.8013 39.3495 73.8013Z" fill="#F5EFDB"/>
<path d="M38.2 34.3266C40.93 34.3266 43.075 35.1692 44.635 36.8544C46.225 38.5066 47.02 40.8692 47.02 43.9422C47.02 46.0901 46.615 47.924 45.805 49.444C45.025 50.9309 43.945 52.0709 42.565 52.8639C41.185 53.6239 39.64 54.0039 37.93 54.0039C36.52 54.0039 35.26 53.7066 34.15 53.1118C33.04 52.484 32.005 51.5422 31.045 50.2866L31 50.1874C31 50.0553 31.06 49.9561 31.18 49.89C31.3 49.7909 31.39 49.7909 31.45 49.89C32.08 50.65 32.845 51.2283 33.745 51.6248C34.675 52.0213 35.635 52.2196 36.625 52.2196C38.635 52.2196 40.135 51.5257 41.125 50.1379C42.115 48.717 42.61 46.8335 42.61 44.4874C42.61 41.9101 42.07 39.8448 40.99 38.2918C39.91 36.7388 38.29 35.9622 36.13 35.9622C35.2 35.9622 34.375 36.0614 33.655 36.2596C32.935 36.4579 32.53 36.5735 32.44 36.6066C32.29 36.6066 32.17 36.557 32.08 36.4579C31.99 36.3257 31.96 36.177 31.99 36.0118L33.43 23.0257C33.46 22.7944 33.505 22.6457 33.565 22.5797C33.625 22.4805 33.775 22.431 34.015 22.431C38.095 22.431 40.795 22.4144 42.115 22.3814C43.465 22.3153 44.35 22.1997 44.77 22.0344C45.19 21.8692 45.52 21.5223 45.76 20.9936C45.79 20.9275 45.88 20.911 46.03 20.944C46.18 20.944 46.24 21.0101 46.21 21.1423L45.535 25.9005C45.445 26.297 45.325 26.5614 45.175 26.6936C45.055 26.7927 44.8 26.8423 44.41 26.8423L34.96 26.5944C34.57 26.5944 34.33 26.8257 34.24 27.2883L33.385 35.2188C35.005 34.624 36.61 34.3266 38.2 34.3266Z" fill="#AAAAAA"/>
</g>
</svg>
